<?xml version="1.0" standalone="no"?>
<!DOCTYPE svg PUBLIC "-//W3C//DTD SVG 20010904//EN"
 "http://www.w3.org/TR/2001/REC-SVG-20010904/DTD/svg10.dtd">
<svg version="1.0" xmlns="http://www.w3.org/2000/svg"
 width="1280.000000pt" height="640.000000pt" viewBox="0 0 1280.000000 640.000000"
 preserveAspectRatio="xMidYMid meet">
<metadata>
Created by potrace 1.15, written by Peter Selinger 2001-2017
</metadata>
<g transform="translate(0.000000,640.000000) scale(0.100000,-0.100000)"
fill="#ffffff" stroke="none">
<path d="M1333 3527 c-727 -176 -1321 -323 -1319 -324 4 -5 2636 -643 2649
-643 6 0 -17 28 -49 63 -74 76 -117 139 -155 222 -29 65 -69 196 -69 227 0 17
230 18 5150 18 l5150 0 0 110 0 110 -5151 0 -5152 0 6 45 c19 134 107 309 215
426 35 38 60 69 55 68 -4 0 -603 -145 -1330 -322z"/>
</g>
</svg>
