<svg xmlns="http://www.w3.org/2000/svg" width="1200" height="1200" class="icon"><g class="layer"><g class="layer"><path fill="#fff" d="M821.74 876.66z"/><path fill="#e19646" d="m657.95 479.02 97.87-167.97 373.43 123.04-412.64 118.55-58.66-73.62zm-106.9 228.16-87.13 424.64 291.9-265-97.87-184.15-106.9 24.51zm-40.02-221.67L201.35 213.23l64.33 365.45h197.16l48.19-93.17z"/><path fill="#fce3af" d="M468.94 607.09h-.19l-196.79-1.47a24.79 24.79 0 0 1-24.16-20.16l-75.85-398.65a24.79 24.79 0 0 1 41.9-22.13l315.28 316.07a24.79 24.79 0 1 1-35.1 35.01L235.72 256.8l56.95 299.41 176.48 1.31a24.79 24.79 0 0 1-.18 49.57h-.03zM449.04 1155a24.79 24.79 0 0 1-23.92-31.23l113.51-421.53a24.79 24.79 0 1 1 47.86 12.88l-92.54 343.64 230.81-199.02-89.41-157.5a24.79 24.79 0 0 1 43.12-24.47l99.46 175.22a24.79 24.79 0 0 1-5.37 31l-307.34 264.99a24.79 24.79 0 0 1-16.18 6.02zm256.51-576.09a24.79 24.79 0 0 1-6.37-48.74l360.17-96.01-287.76-100.32-95.79 163.03a24.79 24.79 0 1 1-42.75-25.1l106.16-180.65a24.79 24.79 0 0 1 29.51-10.84l383.14 133.65a24.79 24.79 0 0 1-1.78 47.35L711.95 578.12a24.79 24.79 0 0 1-6.4.79zl-236.61 28.18 236.61-28.18z"/><path fill="#fce3af" d="M405.35 495.69a12.36 12.36 0 0 1-8.78-3.64L296.02 390.98a12.39 12.39 0 1 1 17.58-17.48l100.54 101.07a12.39 12.39 0 0 1-8.79 21.12zM749 467.7a12.39 12.39 0 0 1-10.38-19.22l45.01-69.1a12.39 12.39 0 0 1 20.76 13.63l-44.99 69.06a12.38 12.38 0 0 1-10.4 5.63zM584.35 947.73a12.39 12.39 0 0 1-8.12-21.76l86.67-75.15a12.39 12.39 0 0 1 16.24 18.66l-86.67 75.15a12.35 12.35 0 0 1-8.12 3.1z"/></g></g></svg>