<svg aria-hidden="true" style="position: absolute; width: 0; height: 0; overflow: hidden;" version="1.1" xmlns="http://www.w3.org/2000/svg" xmlns:xlink="http://www.w3.org/1999/xlink">
<defs>
<symbol id="icon-euro_symbol" viewBox="0 0 24 24">
<path d="M15 18.516q2.391 0 4.219-1.594l1.781 1.781q-2.531 2.297-6 2.297-2.906 0-5.227-1.688t-3.258-4.313h-3.516v-2.016h3.047q-0.047-0.281-0.047-0.984t0.047-0.984h-3.047v-2.016h3.516q0.938-2.625 3.258-4.313t5.227-1.688q1.406 0 3.188 0.68t2.813 1.617l-1.781 1.781q-1.828-1.594-4.219-1.594-1.641 0-3.328 1.031t-2.438 2.484h5.766v2.016h-6.422q-0.094 0.656-0.094 0.984t0.094 0.984h6.422v2.016h-5.766q0.75 1.453 2.438 2.484t3.328 1.031z"></path>
</symbol>
<symbol id="icon-time" viewBox="0 0 32 32">
<path d="M16 3.5c-7.181 0-13 5.82-13 13s5.819 13 13 13c7.179 0 13-5.82 13-13s-5.82-13-13-13zM15.895 27.027c-5.799 0-10.5-4.701-10.5-10.5s4.701-10.5 10.5-10.5c5.798 0 10.5 4.701 10.5 10.5s-4.702 10.5-10.5 10.5zM18.93 17.131h-2.98v-5.032c0-0.546-0.443-0.99-0.989-0.99s-0.99 0.443-0.99 0.99v6.021c0 0.547 0.443 0.989 0.99 0.989h3.969c0.547 0 0.99-0.442 0.99-0.989 0-0.546-0.443-0.989-0.99-0.989z"></path>
</symbol>
<symbol id="icon-sun" viewBox="0 0 32 32">
<path d="M16 9c-3.859 0-7 3.141-7 7s3.141 7 7 7 7-3.141 7-7c0-3.859-3.141-7-7-7zM16 21c-2.762 0-5-2.238-5-5s2.238-5 5-5 5 2.238 5 5-2.238 5-5 5zM16 7c0.552 0 1-0.448 1-1v-2c0-0.552-0.448-1-1-1s-1 0.448-1 1v2c0 0.552 0.448 1 1 1zM16 25c-0.552 0-1 0.448-1 1v2c0 0.552 0.448 1 1 1s1-0.448 1-1v-2c0-0.552-0.448-1-1-1zM23.777 9.635l1.414-1.414c0.391-0.391 0.391-1.023 0-1.414s-1.023-0.391-1.414 0l-1.414 1.414c-0.391 0.391-0.391 1.023 0 1.414s1.023 0.391 1.414 0zM8.223 22.365l-1.414 1.414c-0.391 0.391-0.391 1.023 0 1.414s1.023 0.391 1.414 0l1.414-1.414c0.391-0.392 0.391-1.023 0-1.414s-1.023-0.392-1.414 0zM7 16c0-0.552-0.448-1-1-1h-2c-0.552 0-1 0.448-1 1s0.448 1 1 1h2c0.552 0 1-0.448 1-1zM28 15h-2c-0.552 0-1 0.448-1 1s0.448 1 1 1h2c0.552 0 1-0.448 1-1s-0.448-1-1-1zM8.221 9.635c0.391 0.391 1.024 0.391 1.414 0s0.391-1.023 0-1.414l-1.414-1.414c-0.391-0.391-1.023-0.391-1.414 0s-0.391 1.023 0 1.414l1.414 1.414zM23.779 22.363c-0.392-0.391-1.023-0.391-1.414 0s-0.392 1.023 0 1.414l1.414 1.414c0.391 0.391 1.023 0.391 1.414 0s0.391-1.023 0-1.414l-1.414-1.414z"></path>
</symbol>
<symbol id="icon-wind" viewBox="0 0 32 32">
<path d="M26.938 12c-1.656 0-3 1.344-3 3 0 0.353 0.073 0.685 0.184 1h-19.184c-0.552 0-1 0.448-1 1s0.448 1 1 1h22c1.656 0 3-1.344 3-3s-1.344-3-3-3zM4.938 14h12c1.656 0 3-1.344 3-3s-1.344-3-3-3-3 1.344-3 3c0 0.353 0.073 0.685 0.184 1h-9.184c-0.552 0-1 0.448-1 1s0.448 1 1 1zM20.938 20c-0.059 0-0.115 0.013-0.174 0.018-0.039-0.003-0.072-0.018-0.111-0.018h-15.428c-0.711 0-1.287 0.448-1.287 1s0.576 1 1.287 1h12.897c-0.111 0.315-0.184 0.648-0.184 1 0 1.656 1.344 3 3 3s3-1.344 3-3-1.344-3-3-3z"></path>
</symbol>
<symbol id="icon-cloud" viewBox="0 0 32 32">
<path d="M25 10c-0.332 0-0.66 0.023-0.987 0.070-1.867-2.544-4.814-4.070-8.013-4.070s-6.145 1.526-8.013 4.070c-0.327-0.047-0.655-0.070-0.987-0.070-3.859 0-7 3.141-7 7s3.141 7 7 7c0.856 0 1.693-0.156 2.482-0.458 1.81 1.578 4.112 2.458 6.518 2.458 2.409 0 4.708-0.88 6.518-2.458 0.789 0.302 1.626 0.458 2.482 0.458 3.859 0 7-3.141 7-7s-3.141-7-7-7zM25 22c-1.070 0-2.057-0.344-2.871-0.917-1.467 1.768-3.652 2.917-6.129 2.917s-4.662-1.148-6.129-2.917c-0.813 0.573-1.801 0.917-2.871 0.917-2.762 0-5-2.238-5-5s2.238-5 5-5c0.676 0 1.316 0.138 1.902 0.38 1.327-2.588 3.991-4.38 7.098-4.38s5.771 1.792 7.096 4.38c0.587-0.242 1.229-0.38 1.904-0.38 2.762 0 5 2.238 5 5s-2.238 5-5 5z"></path>
</symbol>
<symbol id="icon-thermometer" viewBox="0 0 32 32">
<path d="M18 22.555v-18.372c0-1.206-0.896-2.182-2-2.182s-2 0.977-2 2.182v18.372c-1.19 0.693-2 1.969-2 3.445 0 2.208 1.792 4 4 4s4-1.792 4-4c0-1.477-0.809-2.753-2-3.445z"></path>
</symbol>
<symbol id="icon-droplet" viewBox="0 0 32 32">
<path d="M27.020 14.786c-2.055-5.732-6.41-10.88-11.020-14.786-4.61 3.907-8.965 9.054-11.020 14.786-1.271 3.545-1.396 7.393 0.393 10.794 2.058 3.911 6.207 6.42 10.626 6.42s8.569-2.509 10.626-6.42c1.79-3.401 1.664-7.249 0.393-10.794zM23.086 23.717c-1.369 2.602-4.15 4.283-7.086 4.283-1.723 0-3.391-0.579-4.753-1.583 0.414 0.054 0.832 0.083 1.254 0.083 3.67 0 7.146-2.1 8.856-5.351 1.402-2.665 1.281-5.433 0.746-7.636 0.455 0.88 0.841 1.756 1.151 2.623 0.706 1.971 1.251 4.886-0.168 7.581z"></path>
</symbol>
<symbol id="icon-location2" viewBox="0 0 32 32">
<path d="M16 0c-5.523 0-10 4.477-10 10 0 10 10 22 10 22s10-12 10-22c0-5.523-4.477-10-10-10zM16 16.125c-3.383 0-6.125-2.742-6.125-6.125s2.742-6.125 6.125-6.125 6.125 2.742 6.125 6.125-2.742 6.125-6.125 6.125zM12.125 10c0-2.14 1.735-3.875 3.875-3.875s3.875 1.735 3.875 3.875c0 2.14-1.735 3.875-3.875 3.875s-3.875-1.735-3.875-3.875z"></path>
</symbol>
<symbol id="icon-humidity" viewBox="0 0 20 20">
<path fill-rule="evenodd" d="M11.743 17.912a4.182 4.182 0 0 1-2.928-1.182 3.972 3.972 0 0 1-.614-4.962.743.743 0 0 1 .646-.349c.234 0 .476.095.66.275l4.467 4.355c.385.376.39.998-.076 1.275a4.216 4.216 0 0 1-2.155.588M11.855 4c.316 0 .61.14.828.395.171.2.36.416.562.647 1.857 2.126 4.965 5.684 4.965 8.73 0 3.416-2.85 6.195-6.353 6.195-3.505 0-6.357-2.78-6.357-6.195 0-3.082 2.921-6.406 4.854-8.605.242-.275.47-.535.673-.772A1.08 1.08 0 0 1 11.855 4"></path>
</symbol>
<symbol id="icon-compass" viewBox="0 0 32 32">
<path d="M17 32c-0.072 0-0.144-0.008-0.217-0.024-0.458-0.102-0.783-0.507-0.783-0.976v-15h-15c-0.469 0-0.875-0.326-0.976-0.783s0.129-0.925 0.553-1.123l30-14c0.381-0.178 0.833-0.098 1.13 0.199s0.377 0.749 0.199 1.13l-14 30c-0.167 0.358-0.524 0.577-0.906 0.577zM5.508 14h11.492c0.552 0 1 0.448 1 1v11.492l10.931-23.423-23.423 10.931z"></path>
</symbol>
<symbol id="icon-sun1" viewBox="0 0 32 32">
<path d="M16 26c1.105 0 2 0.895 2 2v2c0 1.105-0.895 2-2 2s-2-0.895-2-2v-2c0-1.105 0.895-2 2-2zM16 6c-1.105 0-2-0.895-2-2v-2c0-1.105 0.895-2 2-2s2 0.895 2 2v2c0 1.105-0.895 2-2 2zM30 14c1.105 0 2 0.895 2 2s-0.895 2-2 2h-2c-1.105 0-2-0.895-2-2s0.895-2 2-2h2zM6 16c0 1.105-0.895 2-2 2h-2c-1.105 0-2-0.895-2-2s0.895-2 2-2h2c1.105 0 2 0.895 2 2zM25.899 23.071l1.414 1.414c0.781 0.781 0.781 2.047 0 2.828s-2.047 0.781-2.828 0l-1.414-1.414c-0.781-0.781-0.781-2.047 0-2.828s2.047-0.781 2.828 0zM6.101 8.929l-1.414-1.414c-0.781-0.781-0.781-2.047 0-2.828s2.047-0.781 2.828 0l1.414 1.414c0.781 0.781 0.781 2.047 0 2.828s-2.047 0.781-2.828 0zM25.899 8.929c-0.781 0.781-2.047 0.781-2.828 0s-0.781-2.047 0-2.828l1.414-1.414c0.781-0.781 2.047-0.781 2.828 0s0.781 2.047 0 2.828l-1.414 1.414zM6.101 23.071c0.781-0.781 2.047-0.781 2.828 0s0.781 2.047 0 2.828l-1.414 1.414c-0.781 0.781-2.047 0.781-2.828 0s-0.781-2.047 0-2.828l1.414-1.414z"></path>
<path d="M16 8c-4.418 0-8 3.582-8 8s3.582 8 8 8c4.418 0 8-3.582 8-8s-3.582-8-8-8zM16 21c-2.761 0-5-2.239-5-5s2.239-5 5-5 5 2.239 5 5-2.239 5-5 5z"></path>
</symbol>
<symbol id="icon-eye" viewBox="0 0 32 32">
<path d="M16 6c-6.979 0-13.028 4.064-16 10 2.972 5.936 9.021 10 16 10s13.027-4.064 16-10c-2.972-5.936-9.021-10-16-10zM23.889 11.303c1.88 1.199 3.473 2.805 4.67 4.697-1.197 1.891-2.79 3.498-4.67 4.697-2.362 1.507-5.090 2.303-7.889 2.303s-5.527-0.796-7.889-2.303c-1.88-1.199-3.473-2.805-4.67-4.697 1.197-1.891 2.79-3.498 4.67-4.697 0.122-0.078 0.246-0.154 0.371-0.228-0.311 0.854-0.482 1.776-0.482 2.737 0 4.418 3.582 8 8 8s8-3.582 8-8c0-0.962-0.17-1.883-0.482-2.737 0.124 0.074 0.248 0.15 0.371 0.228v0zM16 13c0 1.657-1.343 3-3 3s-3-1.343-3-3 1.343-3 3-3 3 1.343 3 3z"></path>
</symbol>
<symbol id="icon-pressure" viewBox="0 0 24 24">
<path d="M8.462 18.293l-.29-.002c-.6-.004-1.043-.007-1.259-.007-1.119 0-1.182-1.015-.34-1.734l.196-.164.508-.425 1.543-1.292c1.014-.846 1.74-1.45 2.073-1.723.735-.601 1.305-.596 2.033.022.387.329.959.805 2.207 1.841a377.936 377.936 0 0 1 2.18 1.816c.796.67.742 1.66-.295 1.66h-2.382v1.77c0 .83-.393 1.223-1.258 1.223h-2.994c-.809 0-1.258-.42-1.258-1.207v-1.773l-.664-.005zm0-12.807l-.29.002c-.6.004-1.043.006-1.259.006-1.119 0-1.182 1.016-.34 1.734l.196.164.508.426 1.543 1.29a348.68 348.68 0 0 0 2.073 1.724c.735.601 1.305.596 2.033-.022.387-.328.959-.805 2.207-1.84a377.937 377.937 0 0 0 2.18-1.817c.796-.67.742-1.659-.295-1.659h-2.382v-1.77c0-.832-.393-1.224-1.258-1.224h-2.994c-.809 0-1.258.42-1.258 1.207V5.48l-.664.005z"></path>
</symbol>
<symbol id="icon-opacity" viewBox="0 0 24 24">
<path d="M6 14.016h12q0-2.578-1.781-4.359l-4.219-4.406-4.219 4.359q-1.781 1.781-1.781 4.406zM17.672 8.016q2.344 2.344 2.344 5.625 0 3.328-2.344 5.672-0.984 0.984-2.648 1.664t-3.023 0.68-3.023-0.68-2.648-1.664q-2.344-2.344-2.344-5.672 0-1.359 0.68-3t1.664-2.625l5.672-5.672z"></path>
</symbol>
<symbol id="icon-cloudy" viewBox="0 0 32 32">
<path d="M32 15c0-3.073-2.5-5.572-5.573-5.572-0.15 0-0.298 0.007-0.447 0.018-1.445-1.803-3.624-2.874-5.98-2.874-2.355 0-4.535 1.070-5.98 2.874-0.148-0.012-0.298-0.018-0.449-0.018-3.070-0-5.57 2.499-5.57 5.572 0 0.322 0.043 0.631 0.094 0.94-0.034 0.044-0.074 0.085-0.107 0.13-0.327-0.047-0.655-0.070-0.987-0.070-3.859 0-7 3.141-7 7s3.141 7 7 7c0.856 0 1.693-0.156 2.482-0.458 1.81 1.578 4.112 2.458 6.518 2.458 2.409 0 4.708-0.88 6.518-2.458 0.789 0.302 1.626 0.458 2.482 0.458 3.859 0 7-3.141 7-7 0-1.605-0.565-3.068-1.479-4.25 0.911-0.994 1.479-2.302 1.479-3.75zM25 28c-1.070 0-2.057-0.344-2.871-0.917-1.467 1.768-3.652 2.917-6.129 2.917s-4.662-1.148-6.129-2.917c-0.813 0.573-1.801 0.917-2.871 0.917-2.762 0-5-2.238-5-5s2.238-5 5-5c0.676 0 1.316 0.137 1.902 0.379 0.035-0.066 0.078-0.125 0.113-0.189 0.352-0.642 0.785-1.23 1.292-1.753 1.443-1.495 3.448-2.438 5.693-2.438 3.107 0 5.771 1.792 7.096 4.379 0.353-0.145 0.729-0.238 1.117-0.301l0.787-0.078c0.771 0 1.492 0.19 2.145 0.5 0.707 0.338 1.314 0.836 1.79 1.449 0.656 0.845 1.065 1.897 1.065 3.051 0 2.762-2.238 5-5 5zM29.098 17.352c-1.155-0.841-2.563-1.352-4.098-1.352-0.332 0-0.66 0.023-0.987 0.070-1.867-2.544-4.814-4.070-8.013-4.070-2.133 0-4.145 0.69-5.809 1.896 0.467-1.428 1.796-2.467 3.379-2.467 0.484 0 0.941 0.098 1.359 0.271 0.949-1.848 2.852-3.126 5.070-3.126s4.122 1.279 5.068 3.126c0.421-0.173 0.88-0.271 1.359-0.271 1.974 0 3.573 1.599 3.573 3.572 0 0.905-0.348 1.721-0.902 2.351z"></path>
</symbol>
<symbol id="icon-calendar" viewBox="0 0 32 32">
<path d="M10 12h4v4h-4zM16 12h4v4h-4zM22 12h4v4h-4zM4 24h4v4h-4zM10 24h4v4h-4zM16 24h4v4h-4zM10 18h4v4h-4zM16 18h4v4h-4zM22 18h4v4h-4zM4 18h4v4h-4zM26 0v2h-4v-2h-14v2h-4v-2h-4v32h30v-32h-4zM28 30h-26v-22h26v22z"></path>
</symbol>
<symbol id="icon-sunrise1" viewBox="0 0 32 32">
<path d="M11.101 18c0.465-2.283 2.48-4 4.9-4s4.435 1.717 4.899 4h2c-0.49-3.383-3.38-6-6.898-6-3.517 0-6.409 2.617-6.898 6h1.999zM16.001 10c0.552 0 1-0.448 1-1v-2c0-0.552-0.448-1-1-1s-1 0.448-1 1v2c0 0.552 0.448 1 1 1zM25.192 9.807c-0.391-0.391-1.023-0.391-1.414 0l-1.414 1.414c-0.391 0.391-0.391 1.023 0 1.414s1.023 0.391 1.414 0l1.414-1.414c0.391-0.391 0.391-1.023 0-1.414zM9.636 11.221l-1.414-1.414c-0.391-0.391-1.023-0.391-1.414 0s-0.391 1.023 0 1.414l1.414 1.414c0.391 0.391 1.024 0.391 1.414 0s0.391-1.023 0-1.414zM22.001 20h-12c-0.552 0-1 0.448-1 1s0.448 1 1 1h12c0.552 0 1-0.448 1-1s-0.448-1-1-1zM20.001 24h-8c-0.552 0-1 0.448-1 1s0.448 1 1 1h8c0.552 0 1-0.448 1-1s-0.448-1-1-1z"></path>
</symbol>
<symbol id="icon-cross" viewBox="0 0 32 32">
<path d="M31.708 25.708c-0-0-0-0-0-0l-9.708-9.708 9.708-9.708c0-0 0-0 0-0 0.105-0.105 0.18-0.227 0.229-0.357 0.133-0.356 0.057-0.771-0.229-1.057l-4.586-4.586c-0.286-0.286-0.702-0.361-1.057-0.229-0.13 0.048-0.252 0.124-0.357 0.228 0 0-0 0-0 0l-9.708 9.708-9.708-9.708c-0-0-0-0-0-0-0.105-0.104-0.227-0.18-0.357-0.228-0.356-0.133-0.771-0.057-1.057 0.229l-4.586 4.586c-0.286 0.286-0.361 0.702-0.229 1.057 0.049 0.13 0.124 0.252 0.229 0.357 0 0 0 0 0 0l9.708 9.708-9.708 9.708c-0 0-0 0-0 0-0.104 0.105-0.18 0.227-0.229 0.357-0.133 0.355-0.057 0.771 0.229 1.057l4.586 4.586c0.286 0.286 0.702 0.361 1.057 0.229 0.13-0.049 0.252-0.124 0.357-0.229 0-0 0-0 0-0l9.708-9.708 9.708 9.708c0 0 0 0 0 0 0.105 0.105 0.227 0.18 0.357 0.229 0.356 0.133 0.771 0.057 1.057-0.229l4.586-4.586c0.286-0.286 0.362-0.702 0.229-1.057-0.049-0.13-0.124-0.252-0.229-0.357z"></path>
</symbol>
<symbol id="icon-null" viewBox="0 0 32 32">
</symbol>
<symbol id="icon-EUR" viewBox="0 0 24 24">
<path fill="#41479b" style="fill: var(--color1, #41479b)" d="M23.586 19.863h-23.172c-0.229 0-0.414-0.185-0.414-0.414v-14.897c0-0.229 0.185-0.414 0.414-0.414h23.172c0.228 0 0.414 0.185 0.414 0.414v14.897c0 0.229-0.185 0.414-0.414 0.414z"></path>
<path fill="#ffe15a" style="fill: var(--color2, #ffe15a)" d="M12.168 5.939l0.166 0.497 0.524 0.004c0.068 0.001 0.096 0.087 0.041 0.128l-0.422 0.312 0.158 0.5c0.021 0.065-0.053 0.118-0.108 0.079l-0.427-0.305-0.427 0.305c-0.055 0.039-0.129-0.014-0.108-0.079l0.158-0.5-0.422-0.312c-0.055-0.040-0.027-0.127 0.041-0.128l0.524-0.004 0.166-0.497c0.021-0.064 0.113-0.064 0.134 0z"></path>
<path fill="#ffe15a" style="fill: var(--color2, #ffe15a)" d="M12.168 16.621l0.166 0.498 0.524 0.004c0.068 0 0.096 0.087 0.041 0.128l-0.422 0.312 0.158 0.5c0.021 0.065-0.053 0.118-0.108 0.079l-0.427-0.305-0.427 0.305c-0.055 0.039-0.129-0.014-0.108-0.079l0.158-0.5-0.422-0.312c-0.055-0.040-0.027-0.127 0.041-0.128l0.524-0.004 0.166-0.498c0.021-0.064 0.113-0.064 0.134 0z"></path>
<path fill="#ffe15a" style="fill: var(--color2, #ffe15a)" d="M17.508 11.279l0.166 0.498 0.524 0.004c0.068 0.001 0.096 0.087 0.042 0.127l-0.422 0.312 0.158 0.5c0.021 0.065-0.053 0.118-0.108 0.079l-0.427-0.305-0.427 0.305c-0.055 0.039-0.129-0.014-0.108-0.079l0.158-0.5-0.422-0.312c-0.055-0.040-0.027-0.127 0.041-0.127l0.524-0.004 0.166-0.498c0.021-0.064 0.113-0.064 0.134 0z"></path>
<path fill="#ffe15a" style="fill: var(--color2, #ffe15a)" d="M6.827 11.279l0.166 0.498 0.524 0.004c0.068 0.001 0.096 0.087 0.041 0.127l-0.422 0.312 0.158 0.5c0.020 0.065-0.053 0.118-0.108 0.079l-0.427-0.305-0.427 0.305c-0.055 0.039-0.129-0.014-0.108-0.079l0.158-0.5-0.422-0.312c-0.055-0.040-0.026-0.127 0.041-0.127l0.524-0.004 0.166-0.498c0.021-0.064 0.113-0.064 0.134 0z"></path>
<path fill="#ffe15a" style="fill: var(--color2, #ffe15a)" d="M7.629 8.49l0.166 0.497 0.524 0.004c0.068 0.001 0.096 0.087 0.041 0.127l-0.422 0.312 0.158 0.5c0.020 0.065-0.053 0.118-0.108 0.079l-0.427-0.305-0.427 0.305c-0.055 0.039-0.129-0.014-0.108-0.079l0.158-0.5-0.422-0.312c-0.055-0.040-0.026-0.127 0.041-0.127l0.524-0.004 0.166-0.497c0.021-0.064 0.113-0.064 0.134 0z"></path>
<path fill="#ffe15a" style="fill: var(--color2, #ffe15a)" d="M16.879 13.832l0.166 0.498 0.524 0.004c0.068 0 0.096 0.087 0.042 0.128l-0.422 0.312 0.158 0.5c0.021 0.065-0.053 0.118-0.108 0.079l-0.427-0.305-0.427 0.305c-0.055 0.039-0.129-0.014-0.108-0.079l0.158-0.5-0.422-0.312c-0.055-0.040-0.027-0.127 0.041-0.128l0.524-0.004 0.166-0.498c0.021-0.064 0.113-0.064 0.134 0z"></path>
<path fill="#ffe15a" style="fill: var(--color2, #ffe15a)" d="M14.924 6.537l0.166 0.497 0.524 0.004c0.068 0.001 0.096 0.087 0.041 0.128l-0.422 0.312 0.158 0.5c0.021 0.065-0.053 0.118-0.108 0.079l-0.427-0.305-0.427 0.305c-0.055 0.039-0.129-0.014-0.108-0.079l0.158-0.5-0.422-0.312c-0.055-0.040-0.027-0.127 0.042-0.128l0.524-0.004 0.166-0.497c0.021-0.064 0.113-0.064 0.134 0z"></path>
<path fill="#ffe15a" style="fill: var(--color2, #ffe15a)" d="M9.584 15.787l0.166 0.498 0.524 0.004c0.068 0.001 0.096 0.087 0.042 0.128l-0.422 0.312 0.158 0.5c0.021 0.065-0.053 0.118-0.108 0.079l-0.427-0.305-0.427 0.305c-0.055 0.039-0.129-0.014-0.108-0.079l0.158-0.5-0.422-0.312c-0.055-0.040-0.026-0.127 0.041-0.128l0.524-0.004 0.166-0.498c0.021-0.064 0.113-0.064 0.134 0z"></path>
<path fill="#ffe15a" style="fill: var(--color2, #ffe15a)" d="M16.745 8.49l-0.166 0.497-0.524 0.004c-0.068 0.001-0.096 0.087-0.041 0.127l0.422 0.312-0.158 0.5c-0.021 0.065 0.053 0.118 0.108 0.079l0.427-0.305 0.427 0.305c0.055 0.039 0.129-0.014 0.108-0.079l-0.158-0.5 0.422-0.312c0.055-0.040 0.027-0.127-0.042-0.127l-0.524-0.004-0.166-0.497c-0.021-0.064-0.113-0.064-0.134 0z"></path>
<path fill="#ffe15a" style="fill: var(--color2, #ffe15a)" d="M7.495 13.832l-0.166 0.498-0.524 0.004c-0.068 0-0.096 0.087-0.041 0.128l0.422 0.312-0.158 0.5c-0.020 0.065 0.053 0.118 0.108 0.079l0.427-0.305 0.427 0.305c0.055 0.039 0.129-0.014 0.108-0.079l-0.158-0.5 0.422-0.312c0.055-0.040 0.026-0.127-0.041-0.128l-0.524-0.004-0.166-0.498c-0.022-0.064-0.113-0.064-0.134 0z"></path>
<path fill="#ffe15a" style="fill: var(--color2, #ffe15a)" d="M9.45 6.537l-0.166 0.497-0.524 0.004c-0.068 0.001-0.096 0.087-0.041 0.128l0.422 0.312-0.158 0.5c-0.020 0.065 0.053 0.118 0.108 0.079l0.427-0.305 0.427 0.305c0.055 0.039 0.129-0.014 0.108-0.079l-0.158-0.5 0.422-0.312c0.055-0.040 0.026-0.127-0.042-0.128l-0.524-0.004-0.166-0.497c-0.022-0.064-0.113-0.064-0.134 0z"></path>
<path fill="#ffe15a" style="fill: var(--color2, #ffe15a)" d="M14.79 15.787l-0.166 0.498-0.524 0.004c-0.068 0.001-0.096 0.087-0.042 0.128l0.422 0.312-0.158 0.5c-0.021 0.065 0.053 0.118 0.108 0.079l0.427-0.305 0.427 0.305c0.055 0.039 0.129-0.014 0.108-0.079l-0.158-0.5 0.422-0.312c0.055-0.040 0.027-0.127-0.041-0.128l-0.524-0.004-0.166-0.498c-0.021-0.064-0.113-0.064-0.134 0z"></path>
</symbol>
<symbol id="icon-USD" viewBox="0 0 24 24">
<path fill="#f5f5f5" style="fill: var(--color3, #f5f5f5)" d="M23.586 19.863h-23.172c-0.229 0-0.414-0.185-0.414-0.414v-14.897c0-0.229 0.185-0.414 0.414-0.414h23.172c0.228 0 0.414 0.185 0.414 0.414v14.897c0 0.229-0.185 0.414-0.414 0.414z"></path>
<path fill="#ff4b55" style="fill: var(--color4, #ff4b55)" d="M24 5.348h-24v-0.796c0-0.229 0.185-0.414 0.414-0.414h23.172c0.228 0 0.414 0.185 0.414 0.414v0.796z"></path>
<path fill="#ff4b55" style="fill: var(--color4, #ff4b55)" d="M24 8.977h-24v1.21h24v-1.21z"></path>
<path fill="#ff4b55" style="fill: var(--color4, #ff4b55)" d="M24 6.559h-24v1.21h24v-1.21z"></path>
<path fill="#ff4b55" style="fill: var(--color4, #ff4b55)" d="M24 12.606h-23.586c-0.229 0-0.414-0.185-0.414-0.414v-0.796h24v1.21z"></path>
<path fill="#ff4b55" style="fill: var(--color4, #ff4b55)" d="M24 16.234h-24v1.209h24v-1.209z"></path>
<path fill="#ff4b55" style="fill: var(--color4, #ff4b55)" d="M23.586 19.862h-23.172c-0.229 0-0.414-0.185-0.414-0.414v-0.796h24v0.796c0 0.228-0.185 0.414-0.414 0.414z"></path>
<path fill="#ff4b55" style="fill: var(--color4, #ff4b55)" d="M24 13.815h-24v1.209h24v-1.209z"></path>
<path fill="#41479b" style="fill: var(--color1, #41479b)" d="M10.759 4.139h-10.345c-0.229 0-0.414 0.185-0.414 0.414v7.639c0 0.228 0.185 0.414 0.414 0.414h10.345c0.229 0 0.414-0.185 0.414-0.414v-7.639c0-0.229-0.185-0.414-0.414-0.414z"></path>
<path fill="#f5f5f5" style="fill: var(--color3, #f5f5f5)" d="M1.162 5.087l0.092 0.275 0.29 0.002c0.037 0 0.053 0.048 0.023 0.070l-0.233 0.172 0.087 0.276c0.011 0.036-0.029 0.065-0.060 0.043l-0.236-0.168-0.236 0.168c-0.031 0.022-0.071-0.008-0.060-0.043l0.087-0.276-0.233-0.172c-0.030-0.022-0.015-0.070 0.023-0.070l0.29-0.002 0.092-0.275c0.012-0.036 0.062-0.036 0.074-0z"></path>
<path fill="#f5f5f5" style="fill: var(--color3, #f5f5f5)" d="M1.162 6.525l0.092 0.275 0.29 0.002c0.037 0 0.053 0.048 0.023 0.070l-0.233 0.172 0.087 0.276c0.011 0.036-0.029 0.065-0.060 0.043l-0.236-0.168-0.236 0.168c-0.031 0.022-0.071-0.008-0.060-0.043l0.087-0.276-0.233-0.172c-0.030-0.022-0.015-0.070 0.023-0.070l0.29-0.002 0.092-0.275c0.012-0.036 0.062-0.036 0.074-0z"></path>
<path fill="#f5f5f5" style="fill: var(--color3, #f5f5f5)" d="M1.162 7.96l0.092 0.275 0.29 0.002c0.037 0 0.053 0.048 0.023 0.070l-0.233 0.172 0.087 0.276c0.011 0.036-0.029 0.065-0.060 0.043l-0.236-0.168-0.236 0.168c-0.031 0.022-0.071-0.008-0.060-0.043l0.087-0.276-0.233-0.172c-0.030-0.022-0.015-0.070 0.023-0.070l0.29-0.002 0.092-0.275c0.012-0.036 0.062-0.036 0.074-0z"></path>
<path fill="#f5f5f5" style="fill: var(--color3, #f5f5f5)" d="M1.162 9.398l0.092 0.275 0.29 0.002c0.037 0 0.053 0.048 0.023 0.070l-0.233 0.172 0.087 0.276c0.011 0.036-0.029 0.065-0.060 0.043l-0.236-0.168-0.236 0.168c-0.031 0.022-0.071-0.008-0.060-0.043l0.087-0.276-0.233-0.172c-0.030-0.022-0.015-0.070 0.023-0.070l0.29-0.002 0.092-0.275c0.012-0.036 0.062-0.036 0.074-0z"></path>
<path fill="#f5f5f5" style="fill: var(--color3, #f5f5f5)" d="M1.162 10.835l0.092 0.275 0.29 0.002c0.037 0 0.053 0.048 0.023 0.070l-0.233 0.172 0.087 0.276c0.011 0.036-0.029 0.065-0.060 0.043l-0.236-0.168-0.236 0.168c-0.031 0.022-0.071-0.008-0.060-0.043l0.087-0.276-0.233-0.172c-0.030-0.022-0.015-0.070 0.023-0.070l0.29-0.002 0.092-0.275c0.012-0.036 0.062-0.036 0.074-0z"></path>
<path fill="#f5f5f5" style="fill: var(--color3, #f5f5f5)" d="M2.277 5.792l0.092 0.275 0.29 0.002c0.037 0 0.053 0.048 0.023 0.070l-0.233 0.172 0.087 0.276c0.011 0.036-0.029 0.065-0.060 0.043l-0.236-0.168-0.236 0.168c-0.031 0.022-0.071-0.008-0.060-0.043l0.087-0.276-0.233-0.172c-0.030-0.022-0.015-0.070 0.023-0.070l0.29-0.002 0.092-0.275c0.012-0.036 0.062-0.036 0.074 0z"></path>
<path fill="#f5f5f5" style="fill: var(--color3, #f5f5f5)" d="M2.277 7.228l0.092 0.275 0.29 0.002c0.037 0 0.053 0.048 0.023 0.070l-0.233 0.172 0.087 0.276c0.011 0.036-0.029 0.065-0.060 0.043l-0.236-0.168-0.236 0.168c-0.031 0.022-0.071-0.008-0.060-0.043l0.087-0.276-0.233-0.172c-0.030-0.022-0.015-0.070 0.023-0.070l0.29-0.002 0.092-0.275c0.012-0.036 0.062-0.036 0.074 0z"></path>
<path fill="#f5f5f5" style="fill: var(--color3, #f5f5f5)" d="M2.277 8.665l0.092 0.275 0.29 0.002c0.037 0 0.053 0.048 0.023 0.070l-0.233 0.172 0.087 0.276c0.011 0.036-0.029 0.065-0.060 0.043l-0.236-0.168-0.236 0.168c-0.031 0.022-0.071-0.008-0.060-0.043l0.087-0.276-0.233-0.172c-0.030-0.022-0.015-0.070 0.023-0.070l0.29-0.002 0.092-0.275c0.012-0.036 0.062-0.036 0.074 0z"></path>
<path fill="#f5f5f5" style="fill: var(--color3, #f5f5f5)" d="M2.277 10.103l0.092 0.275 0.29 0.002c0.037 0 0.053 0.048 0.023 0.070l-0.233 0.172 0.087 0.276c0.011 0.036-0.029 0.065-0.060 0.043l-0.236-0.168-0.236 0.168c-0.031 0.022-0.071-0.008-0.060-0.043l0.087-0.276-0.233-0.172c-0.030-0.022-0.015-0.070 0.023-0.070l0.29-0.002 0.092-0.275c0.012-0.036 0.062-0.036 0.074 0z"></path>
<path fill="#f5f5f5" style="fill: var(--color3, #f5f5f5)" d="M3.392 5.087l0.092 0.275 0.29 0.002c0.037 0 0.053 0.048 0.023 0.070l-0.233 0.172 0.087 0.276c0.011 0.036-0.029 0.065-0.060 0.043l-0.236-0.168-0.236 0.168c-0.031 0.022-0.071-0.008-0.060-0.043l0.087-0.276-0.233-0.172c-0.030-0.022-0.015-0.070 0.023-0.070l0.29-0.002 0.092-0.275c0.012-0.036 0.062-0.036 0.074 0z"></path>
<path fill="#f5f5f5" style="fill: var(--color3, #f5f5f5)" d="M3.392 6.525l0.092 0.275 0.29 0.002c0.037 0 0.053 0.048 0.023 0.070l-0.233 0.172 0.087 0.276c0.011 0.036-0.029 0.065-0.060 0.043l-0.236-0.168-0.236 0.168c-0.031 0.022-0.071-0.008-0.060-0.043l0.087-0.276-0.233-0.172c-0.030-0.022-0.015-0.070 0.023-0.070l0.29-0.002 0.092-0.275c0.012-0.036 0.062-0.036 0.074 0z"></path>
<path fill="#f5f5f5" style="fill: var(--color3, #f5f5f5)" d="M3.392 7.96l0.092 0.275 0.29 0.002c0.037 0 0.053 0.048 0.023 0.070l-0.233 0.172 0.087 0.276c0.011 0.036-0.029 0.065-0.060 0.043l-0.236-0.168-0.236 0.168c-0.031 0.022-0.071-0.008-0.060-0.043l0.087-0.276-0.233-0.172c-0.030-0.022-0.015-0.070 0.023-0.070l0.29-0.002 0.092-0.275c0.012-0.036 0.062-0.036 0.074 0z"></path>
<path fill="#f5f5f5" style="fill: var(--color3, #f5f5f5)" d="M3.392 9.398l0.092 0.275 0.29 0.002c0.037 0 0.053 0.048 0.023 0.070l-0.233 0.172 0.087 0.276c0.011 0.036-0.029 0.065-0.060 0.044l-0.236-0.168-0.236 0.168c-0.031 0.022-0.071-0.008-0.060-0.044l0.087-0.276-0.233-0.172c-0.030-0.022-0.015-0.070 0.023-0.070l0.29-0.002 0.092-0.275c0.012-0.036 0.062-0.036 0.074 0z"></path>
<path fill="#f5f5f5" style="fill: var(--color3, #f5f5f5)" d="M3.392 10.835l0.092 0.275 0.29 0.002c0.037 0 0.053 0.048 0.023 0.070l-0.233 0.172 0.087 0.276c0.011 0.036-0.029 0.065-0.060 0.043l-0.236-0.168-0.236 0.168c-0.031 0.022-0.071-0.008-0.060-0.043l0.087-0.276-0.233-0.172c-0.030-0.022-0.015-0.070 0.023-0.070l0.29-0.002 0.092-0.275c0.012-0.036 0.062-0.036 0.074 0z"></path>
<path fill="#f5f5f5" style="fill: var(--color3, #f5f5f5)" d="M4.508 5.792l0.092 0.275 0.29 0.002c0.038 0 0.053 0.048 0.023 0.070l-0.233 0.172 0.087 0.276c0.011 0.036-0.029 0.065-0.060 0.043l-0.236-0.168-0.236 0.168c-0.031 0.022-0.071-0.008-0.060-0.043l0.087-0.276-0.233-0.172c-0.030-0.022-0.015-0.070 0.023-0.070l0.29-0.002 0.092-0.275c0.012-0.036 0.062-0.036 0.074 0z"></path>
<path fill="#f5f5f5" style="fill: var(--color3, #f5f5f5)" d="M4.508 7.228l0.092 0.275 0.29 0.002c0.038 0 0.053 0.048 0.023 0.070l-0.233 0.172 0.087 0.276c0.011 0.036-0.029 0.065-0.060 0.043l-0.236-0.168-0.236 0.168c-0.031 0.022-0.071-0.008-0.060-0.043l0.087-0.276-0.233-0.172c-0.030-0.022-0.015-0.070 0.023-0.070l0.29-0.002 0.092-0.275c0.012-0.036 0.062-0.036 0.074 0z"></path>
<path fill="#f5f5f5" style="fill: var(--color3, #f5f5f5)" d="M4.508 8.665l0.092 0.275 0.29 0.002c0.038 0 0.053 0.048 0.023 0.070l-0.233 0.172 0.087 0.276c0.011 0.036-0.029 0.065-0.060 0.043l-0.236-0.168-0.236 0.168c-0.031 0.022-0.071-0.008-0.060-0.043l0.087-0.276-0.233-0.172c-0.030-0.022-0.015-0.070 0.023-0.070l0.29-0.002 0.092-0.275c0.012-0.036 0.062-0.036 0.074 0z"></path>
<path fill="#f5f5f5" style="fill: var(--color3, #f5f5f5)" d="M4.508 10.103l0.092 0.275 0.29 0.002c0.038 0 0.053 0.048 0.023 0.070l-0.233 0.172 0.087 0.276c0.011 0.036-0.029 0.065-0.060 0.043l-0.236-0.168-0.236 0.168c-0.031 0.022-0.071-0.008-0.060-0.043l0.087-0.276-0.233-0.172c-0.030-0.022-0.015-0.070 0.023-0.070l0.29-0.002 0.092-0.275c0.012-0.036 0.062-0.036 0.074 0z"></path>
<path fill="#f5f5f5" style="fill: var(--color3, #f5f5f5)" d="M5.623 5.087l0.092 0.275 0.29 0.002c0.038 0 0.053 0.048 0.023 0.070l-0.233 0.172 0.087 0.276c0.011 0.036-0.029 0.065-0.060 0.043l-0.236-0.168-0.236 0.168c-0.031 0.022-0.071-0.008-0.060-0.043l0.087-0.276-0.233-0.172c-0.030-0.022-0.015-0.070 0.023-0.070l0.29-0.002 0.092-0.275c0.012-0.036 0.062-0.036 0.074 0z"></path>
<path fill="#f5f5f5" style="fill: var(--color3, #f5f5f5)" d="M5.623 6.525l0.092 0.275 0.29 0.002c0.038 0 0.053 0.048 0.023 0.070l-0.233 0.172 0.087 0.276c0.011 0.036-0.029 0.065-0.060 0.043l-0.236-0.168-0.236 0.168c-0.031 0.022-0.071-0.008-0.060-0.043l0.087-0.276-0.233-0.172c-0.030-0.022-0.015-0.070 0.023-0.070l0.29-0.002 0.092-0.275c0.012-0.036 0.062-0.036 0.074 0z"></path>
<path fill="#f5f5f5" style="fill: var(--color3, #f5f5f5)" d="M5.623 7.96l0.092 0.275 0.29 0.002c0.038 0 0.053 0.048 0.023 0.070l-0.233 0.172 0.087 0.276c0.011 0.036-0.029 0.065-0.060 0.043l-0.236-0.168-0.236 0.168c-0.031 0.022-0.071-0.008-0.060-0.043l0.087-0.276-0.233-0.172c-0.030-0.022-0.015-0.070 0.023-0.070l0.29-0.002 0.092-0.275c0.012-0.036 0.062-0.036 0.074 0z"></path>
<path fill="#f5f5f5" style="fill: var(--color3, #f5f5f5)" d="M5.623 9.398l0.092 0.275 0.29 0.002c0.038 0 0.053 0.048 0.023 0.070l-0.233 0.172 0.087 0.276c0.011 0.036-0.029 0.065-0.060 0.044l-0.236-0.168-0.236 0.168c-0.031 0.022-0.071-0.008-0.060-0.044l0.087-0.276-0.233-0.172c-0.030-0.022-0.015-0.070 0.023-0.070l0.29-0.002 0.092-0.275c0.012-0.036 0.062-0.036 0.074 0z"></path>
<path fill="#f5f5f5" style="fill: var(--color3, #f5f5f5)" d="M5.623 10.835l0.092 0.275 0.29 0.002c0.038 0 0.053 0.048 0.023 0.070l-0.233 0.172 0.087 0.276c0.011 0.036-0.029 0.065-0.060 0.043l-0.236-0.168-0.236 0.168c-0.031 0.022-0.071-0.008-0.060-0.043l0.087-0.276-0.233-0.172c-0.030-0.022-0.015-0.070 0.023-0.070l0.29-0.002 0.092-0.275c0.012-0.036 0.062-0.036 0.074 0z"></path>
<path fill="#f5f5f5" style="fill: var(--color3, #f5f5f5)" d="M6.738 5.792l0.092 0.275 0.29 0.002c0.038 0 0.053 0.048 0.023 0.070l-0.233 0.172 0.087 0.276c0.011 0.036-0.029 0.065-0.060 0.043l-0.236-0.168-0.236 0.168c-0.031 0.022-0.071-0.008-0.060-0.043l0.087-0.276-0.233-0.172c-0.030-0.022-0.015-0.070 0.023-0.070l0.29-0.002 0.092-0.275c0.012-0.036 0.062-0.036 0.074 0z"></path>
<path fill="#f5f5f5" style="fill: var(--color3, #f5f5f5)" d="M6.738 7.228l0.092 0.275 0.29 0.002c0.038 0 0.053 0.048 0.023 0.070l-0.233 0.172 0.087 0.276c0.011 0.036-0.029 0.065-0.060 0.043l-0.236-0.168-0.236 0.168c-0.031 0.022-0.071-0.008-0.060-0.043l0.087-0.276-0.233-0.172c-0.030-0.022-0.015-0.070 0.023-0.070l0.29-0.002 0.092-0.275c0.012-0.036 0.062-0.036 0.074 0z"></path>
<path fill="#f5f5f5" style="fill: var(--color3, #f5f5f5)" d="M6.738 8.665l0.092 0.275 0.29 0.002c0.038 0 0.053 0.048 0.023 0.070l-0.233 0.172 0.087 0.276c0.011 0.036-0.029 0.065-0.060 0.043l-0.236-0.168-0.236 0.168c-0.031 0.022-0.071-0.008-0.060-0.043l0.087-0.276-0.233-0.172c-0.030-0.022-0.015-0.070 0.023-0.070l0.29-0.002 0.092-0.275c0.012-0.036 0.062-0.036 0.074 0z"></path>
<path fill="#f5f5f5" style="fill: var(--color3, #f5f5f5)" d="M6.738 10.103l0.092 0.275 0.29 0.002c0.038 0 0.053 0.048 0.023 0.070l-0.233 0.172 0.087 0.276c0.011 0.036-0.029 0.065-0.060 0.043l-0.236-0.168-0.236 0.168c-0.031 0.022-0.071-0.008-0.060-0.043l0.087-0.276-0.233-0.172c-0.030-0.022-0.015-0.070 0.023-0.070l0.29-0.002 0.092-0.275c0.012-0.036 0.062-0.036 0.074 0z"></path>
<path fill="#f5f5f5" style="fill: var(--color3, #f5f5f5)" d="M7.854 5.087l0.092 0.275 0.29 0.002c0.037 0 0.053 0.048 0.023 0.070l-0.233 0.172 0.087 0.276c0.011 0.036-0.029 0.065-0.060 0.043l-0.236-0.168-0.236 0.168c-0.031 0.022-0.071-0.008-0.060-0.043l0.087-0.276-0.233-0.172c-0.030-0.022-0.015-0.070 0.023-0.070l0.29-0.002 0.092-0.275c0.012-0.036 0.062-0.036 0.074 0z"></path>
<path fill="#f5f5f5" style="fill: var(--color3, #f5f5f5)" d="M7.854 6.525l0.092 0.275 0.29 0.002c0.037 0 0.053 0.048 0.023 0.070l-0.233 0.172 0.087 0.276c0.011 0.036-0.029 0.065-0.060 0.043l-0.236-0.168-0.236 0.168c-0.031 0.022-0.071-0.008-0.060-0.043l0.087-0.276-0.233-0.172c-0.030-0.022-0.015-0.070 0.023-0.070l0.29-0.002 0.092-0.275c0.012-0.036 0.062-0.036 0.074 0z"></path>
<path fill="#f5f5f5" style="fill: var(--color3, #f5f5f5)" d="M7.854 7.96l0.092 0.275 0.29 0.002c0.037 0 0.053 0.048 0.023 0.070l-0.233 0.172 0.087 0.276c0.011 0.036-0.029 0.065-0.060 0.043l-0.236-0.168-0.236 0.168c-0.031 0.022-0.071-0.008-0.060-0.043l0.087-0.276-0.233-0.172c-0.030-0.022-0.015-0.070 0.023-0.070l0.29-0.002 0.092-0.275c0.012-0.036 0.062-0.036 0.074 0z"></path>
<path fill="#f5f5f5" style="fill: var(--color3, #f5f5f5)" d="M7.854 9.398l0.092 0.275 0.29 0.002c0.037 0 0.053 0.048 0.023 0.070l-0.233 0.172 0.087 0.276c0.011 0.036-0.029 0.065-0.060 0.044l-0.236-0.168-0.236 0.168c-0.031 0.022-0.071-0.008-0.060-0.044l0.087-0.276-0.233-0.172c-0.030-0.022-0.015-0.070 0.023-0.070l0.29-0.002 0.092-0.275c0.012-0.036 0.062-0.036 0.074 0z"></path>
<path fill="#f5f5f5" style="fill: var(--color3, #f5f5f5)" d="M7.854 10.835l0.092 0.275 0.29 0.002c0.037 0 0.053 0.048 0.023 0.070l-0.233 0.172 0.087 0.276c0.011 0.036-0.029 0.065-0.060 0.043l-0.236-0.168-0.236 0.168c-0.031 0.022-0.071-0.008-0.060-0.043l0.087-0.276-0.233-0.172c-0.030-0.022-0.015-0.070 0.023-0.070l0.29-0.002 0.092-0.275c0.012-0.036 0.062-0.036 0.074 0z"></path>
<path fill="#f5f5f5" style="fill: var(--color3, #f5f5f5)" d="M8.969 5.792l0.092 0.275 0.29 0.002c0.038 0 0.053 0.048 0.023 0.070l-0.233 0.172 0.087 0.276c0.011 0.036-0.029 0.065-0.060 0.043l-0.236-0.168-0.236 0.168c-0.031 0.022-0.071-0.008-0.060-0.043l0.087-0.276-0.233-0.172c-0.030-0.022-0.015-0.070 0.023-0.070l0.29-0.002 0.092-0.275c0.012-0.036 0.062-0.036 0.074 0z"></path>
<path fill="#f5f5f5" style="fill: var(--color3, #f5f5f5)" d="M8.969 7.228l0.092 0.275 0.29 0.002c0.038 0 0.053 0.048 0.023 0.070l-0.233 0.172 0.087 0.276c0.011 0.036-0.029 0.065-0.060 0.043l-0.236-0.168-0.236 0.168c-0.031 0.022-0.071-0.008-0.060-0.043l0.087-0.276-0.233-0.172c-0.030-0.022-0.015-0.070 0.023-0.070l0.29-0.002 0.092-0.275c0.012-0.036 0.062-0.036 0.074 0z"></path>
<path fill="#f5f5f5" style="fill: var(--color3, #f5f5f5)" d="M8.969 8.665l0.092 0.275 0.29 0.002c0.038 0 0.053 0.048 0.023 0.070l-0.233 0.172 0.087 0.276c0.011 0.036-0.029 0.065-0.060 0.043l-0.236-0.168-0.236 0.168c-0.031 0.022-0.071-0.008-0.060-0.043l0.087-0.276-0.233-0.172c-0.030-0.022-0.015-0.070 0.023-0.070l0.29-0.002 0.092-0.275c0.012-0.036 0.062-0.036 0.074 0z"></path>
<path fill="#f5f5f5" style="fill: var(--color3, #f5f5f5)" d="M8.969 10.103l0.092 0.275 0.29 0.002c0.038 0 0.053 0.048 0.023 0.070l-0.233 0.172 0.087 0.276c0.011 0.036-0.029 0.065-0.060 0.043l-0.236-0.168-0.236 0.168c-0.031 0.022-0.071-0.008-0.060-0.043l0.087-0.276-0.233-0.172c-0.030-0.022-0.015-0.070 0.023-0.070l0.29-0.002 0.092-0.275c0.012-0.036 0.062-0.036 0.074 0z"></path>
<path fill="#f5f5f5" style="fill: var(--color3, #f5f5f5)" d="M10.085 5.087l0.092 0.275 0.29 0.002c0.038 0 0.053 0.048 0.023 0.070l-0.233 0.172 0.087 0.276c0.011 0.036-0.029 0.065-0.060 0.043l-0.236-0.168-0.236 0.168c-0.031 0.022-0.071-0.008-0.060-0.043l0.087-0.276-0.233-0.172c-0.030-0.022-0.015-0.070 0.023-0.070l0.29-0.002 0.092-0.275c0.012-0.036 0.062-0.036 0.074 0z"></path>
<path fill="#f5f5f5" style="fill: var(--color3, #f5f5f5)" d="M10.085 6.525l0.092 0.275 0.29 0.002c0.038 0 0.053 0.048 0.023 0.070l-0.233 0.172 0.087 0.276c0.011 0.036-0.029 0.065-0.060 0.043l-0.236-0.168-0.236 0.168c-0.031 0.022-0.071-0.008-0.060-0.043l0.087-0.276-0.233-0.172c-0.030-0.022-0.015-0.070 0.023-0.070l0.29-0.002 0.092-0.275c0.012-0.036 0.062-0.036 0.074 0z"></path>
<path fill="#f5f5f5" style="fill: var(--color3, #f5f5f5)" d="M10.085 7.96l0.092 0.275 0.29 0.002c0.038 0 0.053 0.048 0.023 0.070l-0.233 0.172 0.087 0.276c0.011 0.036-0.029 0.065-0.060 0.043l-0.236-0.168-0.236 0.168c-0.031 0.022-0.071-0.008-0.060-0.043l0.087-0.276-0.233-0.172c-0.030-0.022-0.015-0.070 0.023-0.070l0.29-0.002 0.092-0.275c0.012-0.036 0.062-0.036 0.074 0z"></path>
<path fill="#f5f5f5" style="fill: var(--color3, #f5f5f5)" d="M10.085 9.398l0.092 0.275 0.29 0.002c0.038 0 0.053 0.048 0.023 0.070l-0.233 0.172 0.087 0.276c0.011 0.036-0.029 0.065-0.060 0.044l-0.236-0.168-0.236 0.168c-0.031 0.022-0.071-0.008-0.060-0.044l0.087-0.276-0.233-0.172c-0.030-0.022-0.015-0.070 0.023-0.070l0.29-0.002 0.092-0.275c0.012-0.036 0.062-0.036 0.074 0z"></path>
<path fill="#f5f5f5" style="fill: var(--color3, #f5f5f5)" d="M10.085 10.835l0.092 0.275 0.29 0.002c0.038 0 0.053 0.048 0.023 0.070l-0.233 0.172 0.087 0.276c0.011 0.036-0.029 0.065-0.060 0.043l-0.236-0.168-0.236 0.168c-0.031 0.022-0.071-0.008-0.060-0.043l0.087-0.276-0.233-0.172c-0.030-0.022-0.015-0.070 0.023-0.070l0.29-0.002 0.092-0.275c0.012-0.036 0.062-0.036 0.074 0z"></path>
</symbol>
<symbol id="icon-UAH" viewBox="0 0 24 24">
<path fill="#ffe15a" style="fill: var(--color1, #ffe15a)" d="M0 12h24v7.448c0 0.228-0.185 0.414-0.414 0.414h-23.172c-0.229 0-0.414-0.185-0.414-0.414v-7.448z"></path>
<path fill="#4173cd" style="fill: var(--color2, #4173cd)" d="M24 12h-24v-7.448c0-0.229 0.185-0.414 0.414-0.414h23.172c0.228 0 0.414 0.185 0.414 0.414l-0 7.448z"></path>
</symbol>
<symbol id="icon-PLN" viewBox="0 0 32 32">
<path fill="#ff4b55" style="fill: var(--color3, #ff4b55)" d="M0 16h32v9.931c0 0.305-0.247 0.552-0.552 0.552h-30.896c-0.305 0-0.552-0.247-0.552-0.552v-9.931z"></path>
<path fill="#f5f5f5" style="fill: var(--color4, #f5f5f5)" d="M32 16.001h-32v-9.931c0-0.305 0.247-0.552 0.552-0.552h30.897c0.305 0 0.552 0.247 0.552 0.552v9.931z"></path>
</symbol>
<symbol id="icon-RUB" viewBox="0 0 43 32">
<path fill="#fff" style="fill: var(--color5, #fff)" d="M0 0h42.667v32h-42.667z"></path>
<path fill="#0039a6" style="fill: var(--color6, #0039a6)" d="M0 10.667h42.667v21.333h-42.667z"></path>
<path fill="#d52b1e" style="fill: var(--color7, #d52b1e)" d="M0 21.333h42.667v10.667h-42.667z"></path>
</symbol>
<symbol id="icon-swap_vert" viewBox="0 0 24 24">
<path d="M9 3l3.984 3.984h-3v7.031h-1.969v-7.031h-3zM15.984 17.016h3l-3.984 3.984-3.984-3.984h3v-7.031h1.969v7.031z"></path>
</symbol>
<symbol id="icon-circle-right" viewBox="0 0 32 32">
<path d="M16 0c-8.837 0-16 7.163-16 16s7.163 16 16 16 16-7.163 16-16-7.163-16-16-16zM16 29c-7.18 0-13-5.82-13-13s5.82-13 13-13 13 5.82 13 13-5.82 13-13 13z"></path>
<path d="M11.086 22.086l2.829 2.829 8.914-8.914-8.914-8.914-2.828 2.828 6.086 6.086z"></path>
</symbol>
<symbol id="icon-circle-left" viewBox="0 0 32 32">
<path d="M16 32c8.837 0 16-7.163 16-16s-7.163-16-16-16-16 7.163-16 16 7.163 16 16 16zM16 3c7.18 0 13 5.82 13 13s-5.82 13-13 13-13-5.82-13-13 5.82-13 13-13z"></path>
<path d="M20.914 9.914l-2.829-2.829-8.914 8.914 8.914 8.914 2.828-2.828-6.086-6.086z"></path>
</symbol>
<symbol id="icon-search" viewBox="0 0 32 32">
<path d="M31.008 27.231l-7.58-6.447c-0.784-0.705-1.622-1.029-2.299-0.998 1.789-2.096 2.87-4.815 2.87-7.787 0-6.627-5.373-12-12-12s-12 5.373-12 12 5.373 12 12 12c2.972 0 5.691-1.081 7.787-2.87-0.031 0.677 0.293 1.515 0.998 2.299l6.447 7.58c1.104 1.226 2.907 1.33 4.007 0.23s0.997-2.903-0.23-4.007zM12 20c-4.418 0-8-3.582-8-8s3.582-8 8-8 8 3.582 8 8-3.582 8-8 8z"></path>
</symbol>
<symbol id="icon-wind-w" viewBox="0 0 22 22">
<path xmlns="http://www.w3.org/2000/svg" class="st0" d="M11 21C5.5 21 1 16.5 1 11S5.5 1 11 1s10 4.5 10 10-4.5 10-10 10zm0-19.1C6 1.9 1.9 6 1.9 11S6 20.1 11 20.1s9.1-4.1 9.1-9.1S16 1.9 11 1.9z"/>
<path xmlns="http://www.w3.org/2000/svg" class="st0" d="M15.4 7.3l-4.3 9.2-4.5-9.1L11 9.7l4.4-2.4z"/>
</symbol>
<symbol id="icon-air-sock" viewBox="0 0 32 32">
<path d="M16 12.15v-6.305l4 0.428v5.449l-4 0.429zM13 12.472l-4 0.429v-7.804l4 0.428v6.948zM23 11.4v-4.806l3 0.321v4.164l-3 0.321zM6.5 4c-0.276 0-0.5 0.216-0.5 0.499v24.001c0 0.276 0.232 0.499 0.5 0.499 0.276 0 0.5-0.216 0.5-0.499v-24.001c0-0.276-0.232-0.499-0.5-0.499v0zM8 4v10l19-2v-6l-19-2z"></path>
</symbol>
<symbol id="icon-sunrise" viewBox="0 0 32 32">
<path d="M7.537 22c-0.281 0-0.508 0.232-0.508 0.5 0 0.276 0.227 0.5 0.508 0.5h6.075l2.917-2.5 2.917 2.5h6.075c0.281 0 0.508-0.232 0.508-0.5 0-0.276-0.227-0.5-0.508-0.5h-5.492l-3.5-3-3.5 3h-5.492zM21.978 20c0.015-0.165 0.022-0.331 0.022-0.5 0-3.038-2.462-5.5-5.5-5.5s-5.5 2.462-5.5 5.5c0 0.169 0.008 0.335 0.022 0.5h1.005c-0.018-0.164-0.027-0.331-0.027-0.5 0-2.485 2.015-4.5 4.5-4.5s4.5 2.015 4.5 4.5c0 0.169-0.009 0.336-0.027 0.5h1.005zM16.529 10c-0.276 0-0.5 0.216-0.5 0.495v2.009c0 0.274 0.232 0.495 0.5 0.495 0.276 0 0.5-0.216 0.5-0.495v-2.009c0-0.274-0.232-0.495-0.5-0.495v0 0zM23.267 12.791c-0.195-0.195-0.506-0.201-0.704-0.003l-1.421 1.421c-0.193 0.193-0.186 0.514 0.003 0.704 0.195 0.195 0.506 0.201 0.704 0.003l1.421-1.421c0.193-0.193 0.186-0.514-0.003-0.704v0 0zM26.058 19.529c0-0.276-0.216-0.5-0.495-0.5h-2.009c-0.274 0-0.495 0.232-0.495 0.5 0 0.276 0.216 0.5 0.495 0.5h2.009c0.274 0 0.495-0.232 0.495-0.5v0 0zM7 19.529c0 0.276 0.216 0.5 0.495 0.5h2.009c0.274 0 0.495-0.232 0.495-0.5 0-0.276-0.216-0.5-0.495-0.5h-2.009c-0.274 0-0.495 0.232-0.495 0.5v0 0zM9.791 12.791c-0.195 0.195-0.201 0.506-0.003 0.704l1.421 1.421c0.193 0.193 0.514 0.186 0.704-0.003 0.195-0.195 0.201-0.506 0.003-0.704l-1.421-1.421c-0.193-0.193-0.514-0.186-0.704 0.003v0 0z"></path>
</symbol>
<symbol id="icon-sunset" viewBox="0 0 32 32">
<path d="M22.007 18c0.015-0.165 0.022-0.331 0.022-0.5 0-3.038-2.462-5.5-5.5-5.5s-5.5 2.462-5.5 5.5c0 0.169 0.008 0.335 0.022 0.5h1.005c-0.018-0.164-0.027-0.331-0.027-0.5 0-2.485 2.015-4.5 4.5-4.5s4.5 2.015 4.5 4.5c0 0.169-0.009 0.336-0.027 0.5h1.005zM16.529 8c-0.276 0-0.5 0.216-0.5 0.495v2.009c0 0.274 0.232 0.495 0.5 0.495 0.276 0 0.5-0.216 0.5-0.495v-2.009c0-0.274-0.232-0.495-0.5-0.495v0 0zM23.267 10.791c-0.195-0.195-0.506-0.201-0.704-0.003l-1.421 1.421c-0.193 0.193-0.186 0.514 0.003 0.704 0.195 0.195 0.506 0.201 0.704 0.003l1.421-1.421c0.193-0.193 0.186-0.514-0.003-0.704v0 0zM26.058 17.529c0-0.276-0.216-0.5-0.495-0.5h-2.009c-0.274 0-0.495 0.232-0.495 0.5 0 0.276 0.216 0.5 0.495 0.5h2.009c0.274 0 0.495-0.232 0.495-0.5v0 0zM7 17.529c0 0.276 0.216 0.5 0.495 0.5h2.009c0.274 0 0.495-0.232 0.495-0.5 0-0.276-0.216-0.5-0.495-0.5h-2.009c-0.274 0-0.495 0.232-0.495 0.5v0 0zM9.791 10.791c-0.195 0.195-0.201 0.506-0.003 0.704l1.421 1.421c0.193 0.193 0.514 0.186 0.704-0.003 0.195-0.195 0.201-0.506 0.003-0.704l-1.421-1.421c-0.193-0.193-0.514-0.186-0.704 0.003v0 0zM7.537 21c-0.281 0-0.508-0.232-0.508-0.5 0-0.276 0.227-0.5 0.508-0.5h6.075l2.917 2.5 2.917-2.5h6.075c0.281 0 0.508 0.232 0.508 0.5 0 0.276-0.227 0.5-0.508 0.5h-5.492l-3.5 3-3.5-3h-5.492z"></path>
</symbol>
<symbol id="icon-umbrella" viewBox="0 0 32 32">
<path d="M29.5 12c1.381 0 2.5 0.895 2.5 2 0-5.415-6.671-9.825-15-9.995v-1.506c0-0.276-0.232-0.499-0.5-0.499-0.276 0-0.5 0.216-0.5 0.499v1.506c-8.329 0.17-15 4.58-15 9.995 0-1.105 1.119-2 2.5-2s2.5 0.895 2.5 2c0-1.105 1.119-2 2.5-2s2.5 0.895 2.5 2c0-1.105 1.119-2 2.5-2s2.5 0.895 2.5 2v14.009c0 0.54-0.448 0.991-1 0.991-0.556 0-1-0.444-1-0.991v-1.505c0-0.279-0.232-0.505-0.5-0.505-0.276 0-0.5 0.214-0.5 0.505v1.494c0 1.105 0.888 2.001 2 2.001 1.105 0 2-0.888 2-2v-14c0-1.105 1.119-2 2.5-2s2.5 0.895 2.5 2c0-1.105 1.119-2 2.5-2s2.5 0.895 2.5 2c0-1.105 1.119-2 2.5-2v0zM16 11.9c-0.635-0.556-1.521-0.9-2.5-0.9-0.894 0-1.71 0.287-2.328 0.76v0c0.568-3.631 2.487-6.378 4.828-6.723v6.864zM17 11.9v-6.864c2.341 0.345 4.26 3.092 4.828 6.723-0.619-0.473-1.434-0.76-2.328-0.76-0.979 0-1.865 0.345-2.5 0.9zM10.224 11.389c-0.509-0.247-1.097-0.389-1.724-0.389-0.801 0-1.539 0.23-2.128 0.618v0c0.918-2.873 3.455-5.173 6.718-6.133-1.389 1.319-2.43 3.42-2.866 5.903v0 0zM22.776 11.389v0 0c-0.436-2.483-1.477-4.584-2.866-5.903 3.263 0.96 5.8 3.26 6.718 6.133-0.59-0.388-1.328-0.618-2.128-0.618-0.627 0-1.215 0.141-1.724 0.389zM5.373 11.465c-0.542-0.295-1.184-0.465-1.873-0.465-0.243 0-0.48 0.021-0.71 0.062 1.158-2.083 3.514-3.819 6.556-4.892-1.917 1.326-3.336 3.173-3.974 5.295v0 0zM23.654 6.17c3.042 1.073 5.398 2.809 6.556 4.892-0.229-0.040-0.466-0.062-0.71-0.062-0.689 0-1.331 0.171-1.873 0.465-0.638-2.122-2.057-3.969-3.974-5.295v0 0z"></path>
</symbol>
<symbol id="icon-barometer" viewBox="0 0 32 32">
<path d="M17.892 21.423c0.668 0.449 1.108 1.212 1.108 2.077 0 1.381-1.119 2.5-2.5 2.5s-2.5-1.119-2.5-2.5c0-0.866 0.44-1.628 1.108-2.077l1.392-7.423 1.392 7.423zM29.276 23.872c0.469-1.371 0.724-2.842 0.724-4.372 0-7.456-6.044-13.5-13.5-13.5s-13.5 6.044-13.5 13.5c0 1.53 0.255 3.001 0.724 4.372l0.958-0.29c-0.442-1.279-0.681-2.652-0.681-4.081 0-6.904 5.596-12.5 12.5-12.5s12.5 5.596 12.5 12.5c0 1.429-0.24 2.802-0.681 4.081l0.958 0.29zM16.5 25c0.828 0 1.5-0.672 1.5-1.5s-0.672-1.5-1.5-1.5c-0.828 0-1.5 0.672-1.5 1.5s0.672 1.5 1.5 1.5v0 0zM16.5 8c-0.276 0-0.5 0.215-0.5 0.49v3.019c0 0.271 0.232 0.49 0.5 0.49 0.276 0 0.5-0.215 0.5-0.49v-3.019c0-0.271-0.232-0.49-0.5-0.49v0 0zM23.261 10.197c-0.223-0.162-0.531-0.12-0.693 0.103l-1.775 2.442c-0.159 0.219-0.101 0.533 0.116 0.691 0.223 0.162 0.531 0.12 0.693-0.103l1.775-2.442c0.159-0.219 0.101-0.533-0.116-0.691v0 0zM27.44 15.948c-0.085-0.263-0.359-0.409-0.621-0.324l-2.871 0.933c-0.258 0.084-0.395 0.372-0.312 0.627 0.085 0.263 0.359 0.409 0.621 0.324l2.871-0.933c0.258-0.084 0.395-0.372 0.312-0.627v0 0zM27.44 23.058c0.085-0.263-0.050-0.542-0.312-0.627l-2.871-0.933c-0.258-0.084-0.538 0.069-0.621 0.324-0.085 0.263 0.050 0.542 0.312 0.627l2.871 0.933c0.258 0.084 0.538-0.069 0.621-0.324v0 0zM5.56 23.058c0.085 0.263 0.359 0.409 0.621 0.324l2.871-0.933c0.258-0.084 0.395-0.372 0.312-0.627-0.085-0.263-0.359-0.409-0.621-0.324l-2.871 0.933c-0.258 0.084-0.395 0.372-0.312 0.627v0 0zM5.56 15.948c-0.085 0.263 0.050 0.542 0.312 0.627l2.871 0.933c0.258 0.084 0.538-0.069 0.621-0.324 0.085-0.263-0.050-0.542-0.312-0.627l-2.871-0.933c-0.258-0.084-0.538 0.069-0.621 0.324v0 0zM9.739 10.197c-0.223 0.162-0.278 0.468-0.116 0.691l1.775 2.442c0.159 0.219 0.476 0.26 0.693 0.103 0.223-0.162 0.278-0.468 0.116-0.691l-1.775-2.442c-0.159-0.219-0.476-0.26-0.693-0.103v0 0z"></path>
</symbol>
<symbol id="icon-moonrise" viewBox="0 0 32 32">
<path d="M19.566 19.682c0.858-0.732 1.489-1.722 1.771-2.851 0.088-0.351 0.142-0.716 0.158-1.091-0.468 0.165-0.971 0.254-1.495 0.254-2.485 0-4.5-2.015-4.5-4.5 0-0.524 0.090-1.027 0.254-1.495-0.374 0.016-0.739 0.070-1.091 0.158-2.392 0.597-4.163 2.76-4.163 5.336 0 1.919 0.983 3.608 2.472 4.592l0.787-0.689c-1.35-0.777-2.259-2.234-2.259-3.903 0-1.961 1.255-3.63 3.005-4.246-0.004 0.082-0.005 0.163-0.005 0.246 0 3.038 2.462 5.5 5.5 5.5 0.082 0 0.164-0.002 0.246-0.005-0.283 0.805-0.789 1.505-1.443 2.026l0.763 0.667zM7.508 22c-0.281 0-0.508 0.232-0.508 0.5 0 0.276 0.227 0.5 0.508 0.5h6.075l2.917-2.5 2.917 2.5h6.075c0.281 0 0.508-0.232 0.508-0.5 0-0.276-0.227-0.5-0.508-0.5h-5.492l-3.5-3-3.5 3h-5.492z"></path>
</symbol>
<symbol id="icon-moonset" viewBox="0 0 32 32">
<path d="M21.337 14.831v0c0.088-0.351 0.142-0.716 0.158-1.091-0.468 0.165-0.971 0.254-1.495 0.254-2.485 0-4.5-2.015-4.5-4.5 0-0.524 0.090-1.027 0.254-1.495-0.374 0.016-0.739 0.070-1.091 0.158-2.392 0.597-4.163 2.76-4.163 5.336 0 3.038 2.462 5.5 5.5 5.5 2.577 0 4.739-1.772 5.337-4.163zM11.5 13.495c0-1.961 1.255-3.63 3.005-4.246-0.004 0.082-0.005 0.163-0.005 0.246 0 3.038 2.462 5.5 5.5 5.5 0.082 0 0.164-0.002 0.246-0.005-0.616 1.751-2.285 3.005-4.246 3.005-2.485 0-4.5-2.015-4.5-4.5v0zM7.508 22c-0.281 0-0.508-0.232-0.508-0.5 0-0.276 0.227-0.5 0.508-0.5h6.075l2.917 2.5 2.917-2.5h6.075c0.281 0 0.508 0.232 0.508 0.5 0 0.276-0.227 0.5-0.508 0.5h-5.492l-3.5 3-3.5-3h-5.492z"></path>
</symbol>
<symbol id="icon-eye3" viewBox="0 0 32 32">
<path d="M16 9v0 0c9 0 13 7 13 7s-4 7-13 7c-9 0-13-7-13-7s4-7 13-7zM16 10c-8 0-11.8 6-11.8 6s3.8 6 11.8 6c8 0 11.8-6 11.8-6s-3.8-6-11.8-6v0 0zM16 20v0 0c-2.209 0-4-1.791-4-4s1.791-4 4-4c2.209 0 4 1.791 4 4s-1.791 4-4 4zM16 19c1.657 0 3-1.343 3-3s-1.343-3-3-3c-1.657 0-3 1.343-3 3s1.343 3 3 3v0 0zM16 17c0.552 0 1-0.448 1-1s-0.448-1-1-1c-0.552 0-1 0.448-1 1s0.448 1 1 1v0 0z"></path>
</symbol>
<symbol id="icon-clouds" viewBox="0 0 32 32">
<path d="M8.268 24h-0.761c-0.832 0-1.506 0.666-1.506 1.5 0 0.828 0.672 1.5 1.506 1.5h7.987c0.832 0 1.506-0.666 1.506-1.5 0-0.828-0.672-1.5-1.506-1.5h-0.494c0-1.105-0.895-2-2-2-0.412 0-0.794 0.124-1.112 0.338-0.273-0.779-1.015-1.338-1.888-1.338-1.105 0-2 0.895-2 2 0 0.364 0.097 0.706 0.268 1v0zM15.837 23.023c0.679 0.093 1.27 0.456 1.662 0.977h7.498c2.211 0 4.003-1.795 4.003-4 0-1.877-1.299-3.453-3.042-3.884v0c0.028-0.202 0.042-0.407 0.042-0.616 0-2.485-2.015-4.5-4.5-4.5-1.226 0-2.337 0.49-3.148 1.285-0.991-1.949-3.015-3.285-5.352-3.285-3.314 0-6 2.686-6 6 0 0.377 0.035 0.745 0.101 1.102v0c-1.776 0.41-3.101 2.002-3.101 3.898 0 1.49 0.818 2.79 2.028 3.478v0c0.285-0.207 0.615-0.355 0.973-0.428-0-0.017-0-0.034-0-0.051 0-1.657 1.343-3 3-3 0.927 0 1.756 0.42 2.306 1.081 0.223-0.053 0.455-0.081 0.694-0.081 1.315 0 2.432 0.846 2.837 2.023v0 0zM5.341 24.237c-1.407-0.885-2.341-2.451-2.341-4.237 0-2.051 1.24-3.818 3.012-4.588-0.008-0.136-0.012-0.273-0.012-0.412 0-3.866 3.134-7 7-7 1.288 0 2.495 0.348 3.532 0.955 0.36-0.457 0.876-0.784 1.468-0.905v0c-0-0.017-0-0.034-0-0.051 0-1.657 1.343-3 3-3 0.927 0 1.756 0.42 2.306 1.081 0.223-0.053 0.455-0.081 0.694-0.081 1.315 0 2.432 0.846 2.837 2.023v0c1.223 0.167 2.163 1.212 2.163 2.477 0 1.39-1.122 2.5-2.507 2.5h-0.093c0.371 0.726 0.586 1.546 0.599 2.415 1.768 0.771 3.001 2.534 3.001 4.585 0 2.756-2.238 5-4.999 5h-7.051c0.033 0.162 0.050 0.329 0.050 0.5 0 1.39-1.122 2.5-2.507 2.5h-7.987c-1.387 0-2.507-1.119-2.507-2.5 0-0.462 0.124-0.894 0.341-1.263v0 0zM25.743 12h0.751c0.832 0 1.506-0.666 1.506-1.5 0-0.828-0.672-1.5-1.506-1.5h-0.494c0-1.105-0.895-2-2-2-0.412 0-0.794 0.124-1.112 0.338-0.273-0.779-1.015-1.338-1.888-1.338-1.105 0-2 0.895-2 2 0 0.364 0.097 0.706 0.268 1v0h-0.761c-0.459 0-0.87 0.202-1.146 0.524v0c0.471 0.376 0.892 0.81 1.253 1.294 0.839-0.518 1.828-0.817 2.886-0.817 1.708 0 3.234 0.778 4.243 2v0 0z"></path>
</symbol>
<symbol id="icon-raindrop1" viewBox="0 0 32 32">
<path d="M12 18.211c0-2.526 4-8.211 4-8.211s4 5.684 4 8.211c0 2.093-1.791 3.789-4 3.789s-4-1.697-4-3.789z"></path>
</symbol>
</defs>
</svg>


