<svg aria-hidden="true" style="position: absolute; width: 0; height: 0; overflow: hidden;" version="1.1" xmlns="http://www.w3.org/2000/svg" xmlns:xlink="http://www.w3.org/1999/xlink">
    <defs>

        <symbol id="icon-meat" viewBox="0 0 24 24">
            <path d="M21.4332 5.6009C21.0836 5.25131 20.6323 5.06379 20.1737 5.03848C20.148 4.56209 19.9502 4.11788 19.6103 3.77795C18.8546 3.0223 17.6315 3.02222 16.8758 3.77795C16.2697 4.38394 16.1603 5.27511 16.4975 5.97937L14.6716 7.80524C14.4532 7.83858 14.2253 7.88946 13.989 7.95765C12.7089 7.38213 11.2506 7.07868 9.75365 7.07868C5.08621 7.07868 1.28898 9.97001 1.28898 13.5239C1.28898 14.3988 1.52139 15.2684 1.96337 16.0662C1.66689 16.449 1.45398 16.8996 1.35382 17.391H0V18.0355C0 19.8125 1.44564 21.2582 3.22261 21.2582H16.1989C17.9758 21.2582 19.4215 19.8125 19.4215 18.0355V17.391H16.4678C17.5413 16.2902 18.1325 14.9439 18.1325 13.5239C18.1325 12.5849 17.8648 11.6516 17.3574 10.8071C17.3764 10.7164 17.3925 10.6272 17.406 10.5395L19.2325 8.71291C19.9513 9.05542 20.8391 8.92952 21.4332 8.33534C22.1888 7.57978 22.189 6.35668 21.4332 5.6009ZM14.2043 9.23915C14.6844 9.08554 15.6055 8.88805 15.9644 9.24688C16.3255 9.60799 16.1271 10.5225 15.9721 11.0069C15.6959 11.8704 15.1562 12.7895 14.5971 13.3486C13.8475 14.0982 13.4429 14.0173 12.3184 12.8928C11.194 11.7684 11.1131 11.3638 11.8627 10.6141C12.4217 10.055 13.3408 9.51535 14.2043 9.23915ZM18.022 18.6758C17.756 19.4261 17.0392 19.9691 16.1989 19.9691H3.22261C2.38227 19.9691 1.66551 19.426 1.39949 18.6758C3.2731 18.6758 15.9599 18.6758 18.022 18.6758ZM2.68851 17.3911C2.95453 16.6408 3.67134 16.102 4.51163 16.102C5.35197 16.102 6.06873 16.6408 6.33475 17.3911H2.68851ZM7.85426 17.3911C8.1385 16.6485 8.89367 16.102 9.75369 16.102C10.594 16.102 11.3108 16.6408 11.5768 17.3911H7.85426ZM14.4308 17.3911H12.9114C12.612 15.922 11.3099 14.813 9.7536 14.813C8.89298 14.813 8.07215 15.1446 7.44232 15.7468C7.31839 15.8652 7.20547 15.9912 7.10347 16.1233C6.51595 15.3292 5.573 14.8131 4.5115 14.8131C3.9527 14.8131 3.42676 14.9562 2.9682 15.2075C2.70935 14.6685 2.57804 14.1046 2.57804 13.524C2.57804 12.1882 3.3049 10.9157 4.62473 9.94074C5.99788 8.92642 7.81941 8.36787 9.75369 8.36787C10.6225 8.36787 11.474 8.48311 12.2732 8.70565C11.7687 9.00145 11.3091 9.34477 10.9511 9.70278C10.2052 10.4488 9.94065 11.2295 10.165 12.0233C10.3611 12.7171 10.9089 13.3064 11.4068 13.8045C12.0618 14.4594 12.8064 15.1236 13.7331 15.1236C14.3389 15.1236 14.934 14.8346 15.5085 14.2602C15.9556 13.813 16.3799 13.2076 16.717 12.5538C16.8007 12.871 16.8433 13.1948 16.8433 13.5241C16.8434 15.0052 15.9666 16.4064 14.4308 17.3911ZM20.5218 7.42385C20.2705 7.67509 19.8616 7.67509 19.6102 7.42372L19.1545 6.96799L17.2467 8.87576C17.1539 8.67106 17.0304 8.48982 16.8758 8.3353C16.7213 8.18079 16.54 8.05725 16.3353 7.96444L18.3432 5.95647L17.7512 5.5618C17.5367 5.30948 17.5472 4.92943 17.7873 4.68936C18.0387 4.43804 18.4475 4.43808 18.6988 4.68936C18.9507 4.94129 18.9507 5.34893 18.6988 5.60086L19.6103 6.51235C19.8617 6.26107 20.2705 6.26107 20.5218 6.51235C20.7731 6.76363 20.7731 7.17257 20.5218 7.42385Z"></path>
            <path d="M2.16871 1.17206C1.94219 0.897448 1.53183 0.981846 1.33438 1.27804C1.13694 1.57422 1.25444 1.9808 1.34779 2.32429C1.36886 2.4018 1.37977 2.4832 1.37977 2.56708C1.37977 2.87478 1.2329 3.14918 0.976895 3.31985C0.365191 3.72762 0 4.41001 0 5.14512C0 5.66187 0.180438 6.15255 0.500095 6.54011C0.726598 6.81473 1.13697 6.73033 1.33443 6.43414C1.53188 6.13797 1.4144 5.73139 1.32104 5.38789C1.29998 5.31038 1.28906 5.22897 1.28906 5.14507C1.28906 4.83733 1.43593 4.56298 1.69194 4.39231C2.30364 3.98453 2.66883 3.30219 2.66883 2.56699C2.66883 2.05022 2.48837 1.55959 2.16871 1.17206Z"></path>
            <path d="M5.39127 1.17207C5.16477 0.897452 4.7544 0.981835 4.55694 1.27803C4.35949 1.5742 4.47699 1.9808 4.57033 2.3243C4.59139 2.4018 4.6023 2.4832 4.6023 2.56707C4.6023 2.87477 4.45544 3.14917 4.19943 3.31984C3.58773 3.72766 3.22253 4.41 3.22253 5.14515C3.22253 5.66191 3.40298 6.15258 3.72265 6.54015C3.94915 6.81475 4.3595 6.73037 4.55695 6.43419C4.7544 6.13802 4.63691 5.73142 4.54357 5.38792C4.52251 5.31042 4.5116 5.22902 4.5116 5.14515C4.5116 4.83745 4.65846 4.56306 4.91447 4.39234C5.52618 3.98457 5.89137 3.30222 5.89137 2.56703C5.89137 2.05026 5.71091 1.55962 5.39127 1.17207Z"></path>
        </symbol>

        <symbol id="icon-cake" viewBox="0 0 24 24">
            <path d="M18.7773 10.344C18.5528 10.344 18.3291 10.3701 18.1013 10.4234C16.5724 8.77482 13.9017 7.76587 11 7.76587C8.09832 7.76587 5.4276 8.77478 3.89873 10.4234C3.67091 10.3702 3.44717 10.344 3.22266 10.344C1.44568 10.344 0 11.7897 0 13.5666C0 15.3041 1.38235 16.724 3.10488 16.7863L3.69643 20.3729C3.85249 21.3091 4.65459 21.9886 5.60373 21.9886H16.3963C17.3454 21.9886 18.1475 21.3091 18.3037 20.3718L18.8952 16.7864C20.6177 16.724 22 15.3041 22 13.5666C22 11.7896 20.5543 10.344 18.7773 10.344ZM17.032 20.1609C16.98 20.473 16.7126 20.6995 16.3963 20.6995H5.60373C5.28735 20.6995 5.02 20.473 4.96813 20.162L4.37671 16.5764C4.37705 16.5762 4.37744 16.5761 4.37779 16.576C4.96392 17.4964 5.99779 18.0784 7.13281 18.0784C7.83316 18.0784 8.51086 17.8444 9.06641 17.4222C9.62195 17.8444 10.2997 18.0784 11 18.0784C11.7003 18.0784 12.3781 17.8444 12.9336 17.4222C13.4891 17.8444 14.1668 18.0784 14.8672 18.0784C16.0022 18.0784 17.0361 17.4964 17.6222 16.576C17.6226 16.5761 17.6229 16.5762 17.6233 16.5764L17.032 20.1609ZM18.7773 15.5002C18.3894 15.5002 18.0153 15.3858 17.6954 15.1693L17.0022 14.7001L16.7258 15.4902C16.4581 16.2551 15.6938 16.7893 14.8671 16.7893C14.3102 16.7893 13.7958 16.5517 13.4188 16.1204L12.9336 15.5653L12.4483 16.1204C12.0713 16.5517 11.557 16.7893 11 16.7893C10.443 16.7893 9.9287 16.5517 9.55165 16.1204L9.06641 15.5653L8.58112 16.1204C8.20407 16.5517 7.68973 16.7893 7.13277 16.7893C6.30609 16.7893 5.54181 16.255 5.27416 15.4902L4.99769 14.7002L4.30452 15.1693C3.98462 15.3858 3.61049 15.5002 3.22257 15.5002C2.15639 15.5002 1.28898 14.6328 1.28898 13.5666C1.28898 12.5005 2.15647 11.6331 3.22266 11.6331C3.66751 11.6331 3.99446 11.8195 4.3273 11.93L4.61897 11.5619C5.82566 10.039 8.33039 9.05493 11 9.05493C13.6696 9.05493 16.1743 10.039 17.3811 11.5619L17.6727 11.93C17.993 11.8236 18.3328 11.633 18.7773 11.633C19.8435 11.633 20.7109 12.5004 20.7109 13.5666C20.7109 14.6328 19.8435 15.5002 18.7773 15.5002Z"></path>
            <path d="M11.6445 12.2776V10.9885C11.6445 10.6326 11.356 10.344 11 10.344C10.644 10.344 10.3555 10.6326 10.3555 10.9885V12.2776C10.3555 12.6335 10.644 12.9221 11 12.9221C11.356 12.9221 11.6445 12.6335 11.6445 12.2776Z"></path>
            <path d="M15.046 11.3845L14.472 10.5234C14.2746 10.2272 13.8744 10.1472 13.5782 10.3446C13.282 10.5421 13.2019 10.9423 13.3994 11.2385L13.9734 12.0995C14.1708 12.3957 14.571 12.4758 14.8672 12.2783C15.1634 12.0808 15.2435 11.6807 15.046 11.3845Z"></path>
            <path d="M7.52867 10.5236L6.9547 11.3846C6.75724 11.6808 6.83729 12.081 7.1335 12.2784C7.42971 12.4759 7.82991 12.3958 8.02737 12.0996L8.60134 11.2386C8.7988 10.9424 8.71875 10.5422 8.42254 10.3448C8.12633 10.1473 7.72613 10.2274 7.52867 10.5236Z"></path>
            <path d="M8.64303 0.442755C8.41745 0.167384 8.00709 0.251608 7.80964 0.547794C7.61218 0.843983 7.72648 1.25272 7.82039 1.59609C7.84314 1.67926 7.85495 1.76723 7.85495 1.85834C7.85495 2.17971 7.70812 2.46193 7.45211 2.6326C6.84041 3.04042 6.47522 3.7228 6.47522 4.45795C6.47522 4.9747 6.65567 5.46537 6.97532 5.85293C7.20182 6.12755 7.61218 6.04316 7.80964 5.74697C8.00709 5.45078 7.88958 5.04418 7.79625 4.70067C7.77519 4.62318 7.76428 4.54178 7.76428 4.45791C7.76428 4.15021 7.91111 3.87586 8.16716 3.70514C8.77886 3.29733 9.14405 2.6069 9.14405 1.8583C9.14405 1.33159 8.96327 0.833679 8.64303 0.442755Z"></path>
            <path d="M11.8657 0.442767C11.6401 0.167385 11.2297 0.251601 11.0323 0.547783C10.8348 0.843964 10.9491 1.25268 11.043 1.59603C11.0658 1.67922 11.0776 1.76721 11.0776 1.85835C11.0776 2.17971 10.9308 2.46193 10.6748 2.6326C10.0631 3.04042 9.69788 3.72281 9.69788 4.45796C9.69788 4.9747 9.87833 5.46538 10.198 5.85293C10.4245 6.12755 10.8348 6.04316 11.0323 5.74697C11.2297 5.45079 11.1122 5.04419 11.0189 4.70067C10.9978 4.62318 10.9869 4.54179 10.9869 4.45792C10.9869 4.15022 11.1338 3.87586 11.3898 3.70515C12.0015 3.29737 12.3667 2.60695 12.3667 1.85835C12.3667 1.33161 12.1859 0.833693 11.8657 0.442767Z"></path>
            <path d="M15.0883 0.442749C14.8628 0.167383 14.4524 0.251613 14.255 0.547798C14.0575 0.843992 14.1718 1.25273 14.2657 1.59609C14.2885 1.67927 14.3003 1.76724 14.3003 1.85836C14.3003 2.17972 14.1534 2.46194 13.8974 2.63261C13.2857 3.04043 12.9205 3.72281 12.9205 4.45797C12.9205 4.97472 13.101 5.4654 13.4206 5.85298C13.6471 6.1276 14.0575 6.04321 14.255 5.74702C14.4524 5.45084 14.3349 5.04423 14.2416 4.70072C14.2205 4.62323 14.2096 4.54183 14.2096 4.45797C14.2096 4.15027 14.3565 3.87587 14.6125 3.70515C15.2242 3.29734 15.5894 2.60692 15.5894 1.85831C15.5894 1.33159 15.4086 0.833676 15.0883 0.442749Z"></path>
        </symbol>

        <symbol id="icon-soup" viewBox="0 0 24 24">
            <path d="M21.4337 3.30086C22.1875 2.54697 22.1875 1.32026 21.4337 0.566328C20.6797 -0.187559 19.4531 -0.187516 18.7016 0.563922L17.2758 1.97454C15.432 0.681226 13.274 0 11 0C8.07327 0 5.31407 1.14735 3.23073 3.23073C1.14735 5.31407 0 8.07327 0 11C0 17.0568 4.94355 22 11 22C17.0568 22 22 17.0564 22 11C22 8.7777 21.295 6.56782 20.0053 4.71406L21.4337 3.30086ZM19.6106 1.47787C19.862 1.22654 20.2709 1.22659 20.5221 1.47787C20.7735 1.72919 20.7735 2.13808 20.5246 2.38696L16.4907 6.37785C16.1155 6.7531 15.8044 7.17918 15.567 7.63254C15.4041 7.38482 15.2176 7.15438 15.0101 6.94689C14.8027 6.73939 14.5771 6.55411 14.337 6.39263C14.7802 6.15652 15.1994 5.84611 15.5768 5.46876L19.6106 1.47787ZM12.0245 6.92093C12.8069 6.97035 13.5435 7.30323 14.0986 7.85838C14.642 8.40172 14.9831 9.16988 15.0355 9.96712C15.0355 9.96712 15.0359 9.97262 15.0361 9.97614C15.0959 10.8434 16.3226 10.8533 16.3226 9.89514C16.3226 9.892 16.3706 10.6964 16.3221 9.88711C16.2736 9.07779 16.5975 8.20845 17.1962 7.51145C17.8038 8.58902 18.1328 9.80285 18.1328 11C18.1328 14.9331 14.9331 18.1328 11 18.1328C7.06694 18.1328 3.86719 14.9331 3.86719 11C3.86719 7.06694 7.06694 3.86719 11 3.86719C12.2185 3.86719 13.3953 4.17467 14.4451 4.76184C13.7438 5.36912 12.9051 5.68472 12.1049 5.63436C11.3046 5.584 11.242 6.87152 12.0245 6.92093ZM20.7109 11C20.7109 16.3546 16.3546 20.7109 11 20.7109C5.64536 20.7109 1.28906 16.3546 1.28906 11C1.28906 5.64536 5.64536 1.28906 11 1.28906C12.9271 1.28906 14.7596 1.84336 16.3425 2.89786L15.401 3.82929C14.0792 3.00932 12.5687 2.57812 11 2.57812C8.76511 2.57812 6.65423 3.45817 5.05622 5.05622C3.45817 6.65423 2.57812 8.76511 2.57812 11C2.57812 15.6251 6.37454 19.4219 11 19.4219C15.6251 19.4219 19.4219 15.6255 19.4219 11C19.4219 9.4646 18.9674 7.90986 18.1339 6.5655L19.0734 5.63595C20.1335 7.23538 20.7109 9.11359 20.7109 11Z"></path>
            <path d="M10.3555 12.2891C10.3555 9.77758 8.33151 7.73438 5.84375 7.73438H5.19922V8.37891C5.19922 10.8904 7.22318 12.9336 9.71094 12.9336H10.3555V12.2891ZM6.56898 9.1068C7.76707 9.387 8.7117 10.3461 8.98571 11.5611C7.78761 11.281 6.84299 10.3218 6.56898 9.1068Z"></path>
            <path d="M10.3555 16.1562V16.8008H11C13.4878 16.8008 15.5117 14.7768 15.5117 12.2891V11.6445H14.8672C12.3794 11.6445 10.3555 13.6685 10.3555 16.1562ZM14.1399 13.0164C13.8634 14.2105 12.9214 15.1525 11.7273 15.429C12.0037 14.2348 12.9458 13.2928 14.1399 13.0164Z"></path>
            <path d="M11.6445 9.71094C11.6445 9.35497 11.9331 9.06641 12.2891 9.06641C12.645 9.06641 12.9336 9.35497 12.9336 9.71094C12.9336 10.0669 12.645 10.3555 12.2891 10.3555C11.9331 10.3555 11.6445 10.0669 11.6445 9.71094Z"></path>
            <path d="M9.06641 5.80078C9.06641 5.44482 9.35497 5.15625 9.71094 5.15625C10.0669 5.15625 10.3555 5.44482 10.3555 5.80078C10.3555 6.15675 10.0669 6.44531 9.71094 6.44531C9.35497 6.44531 9.06641 6.15675 9.06641 5.80078Z"></path>
        </symbol>

        <symbol id="icon-drink" viewBox="0 0 24 24">
            <path d="M18.8237 1.29984L14.891 0.0313288C14.5533 -0.0776819 14.1911 0.106867 14.0807 0.443997L12.7595 4.47589H7.49202C7.20121 2.88881 5.80891 1.682 4.13911 1.682C2.25904 1.682 0.729492 3.21155 0.729492 5.09163C0.729492 6.80877 2.00565 8.23283 3.65924 8.46683C4.33335 10.2416 7.89566 14.095 7.89566 14.095C7.89566 14.095 8.8884 15.1063 9.53615 15.2615V20.7109H6.7604C6.40445 20.7109 6.11587 20.9995 6.11587 21.3555C6.11587 21.7114 6.40445 22 6.7604 22H13.6011C13.9571 22 14.2457 21.7114 14.2457 21.3555C14.2457 20.9995 13.9571 20.7109 13.6011 20.7109H10.8252V15.2615C11.4729 15.1063 12.4657 14.095 12.4657 14.095C12.4657 14.095 16.436 9.54001 16.8345 8.05765C16.8428 8.03225 16.8497 8.00626 16.8548 7.97957C16.9377 7.64597 16.9819 7.29908 16.9819 6.94464V5.12046C16.9819 4.76451 16.6933 4.47593 16.3374 4.47593H14.1159L15.1058 1.45509L18.4279 2.52663C18.7666 2.63598 19.1299 2.4498 19.2392 2.11108C19.3485 1.77232 19.1625 1.40911 18.8237 1.29984ZM4.68086 7.2122C4.67295 7.12377 4.66853 7.03461 4.66853 6.94459V5.76494H12.3371L11.8628 7.2122H4.68086ZM2.01854 5.09163C2.01854 3.92233 2.96982 2.97105 4.13907 2.97105C5.0943 2.97105 5.90374 3.606 6.16821 4.47589H4.02396C3.66801 4.47589 3.37943 4.76447 3.37943 5.12042V6.94459C3.37943 6.98718 3.38072 7.02959 3.38197 7.07195C2.5856 6.76645 2.01854 5.99422 2.01854 5.09163ZM11.4115 13.3532C11.4115 13.3532 10.716 13.9569 10.1806 13.9569C9.64526 13.9569 8.94981 13.3532 8.94981 13.3532C8.94981 13.3532 5.85471 10.0971 5.10358 8.5013C6.86646 8.5013 12.3257 8.5013 12.3257 8.5013L12.33 8.50147L12.3342 8.5013C12.3342 8.5013 14.0039 8.5013 15.2576 8.5013C14.6662 9.74762 11.4115 13.3532 11.4115 13.3532ZM15.6928 5.76498V6.94464C15.6928 7.03461 15.6884 7.12382 15.6805 7.21224H13.2193L13.6936 5.76498H15.6928Z"></path>
        </symbol>

        <symbol id="icon-desert" viewBox="0 0 24 24">
            <path d="M8.8003 4.71058C8.32936 3.51373 7.1628 2.66394 5.80078 2.66394C5.32684 2.66394 4.87691 2.76762 4.47124 2.95217C4.17311 2.26068 3.97906 1.50165 3.90322 0.730347C3.78125 -0.171992 2.53132 -0.129012 2.61358 0.781825C2.70646 1.8101 2.97969 2.82431 3.4088 3.72956C3.30301 3.84674 3.20586 3.97182 3.11798 4.10361C2.25874 4.33882 1.48861 4.84271 0.926922 5.54487C0.298461 6.33042 -0.0294766 7.31729 0.00214844 8.32606C0.000730469 8.37238 0 17.4882 0 17.4882C0 19.9759 2.02396 21.9999 4.51172 21.9999C14.6469 19.6826 18.9169 18.7064 20.7109 18.2962C21.8281 18.0408 22 17.703 22 16.9749C22 14.9176 22 10.3394 22 8.20689C22 7.34752 21.5703 7.00377 20.7109 6.85118L8.8003 4.71058ZM5.80078 3.953C6.86696 3.953 7.73438 4.82041 7.73438 5.8866C7.73438 6.95278 6.86696 7.82019 5.80078 7.82019C4.7346 7.82019 3.86719 6.95278 3.86719 5.8866C3.86719 4.82041 4.7346 3.953 5.80078 3.953ZM3.86719 20.6451C2.39813 20.3456 1.28906 19.0444 1.28906 17.4882V11.6219C1.99242 12.34 2.88999 12.7926 3.86719 12.9309V20.6451ZM4.44061 11.6856C2.69792 11.6474 1.23986 10.2276 1.29113 8.30191C1.25245 7.25098 1.76043 6.30064 2.58169 5.74639C2.57967 5.79293 2.57812 5.83959 2.57812 5.8866C2.57812 7.66357 4.02381 9.10925 5.80078 9.10925C7.5197 9.10925 8.92848 7.75643 9.01867 6.05955L19.5507 7.95236C18.2593 8.26982 18.9986 8.08767 19.0712 8.06984C19.0032 8.08657 18.2829 8.26393 15.3175 8.99384C14.3516 9.23161 14.1797 9.45298 14.1797 10.4413V12.9764C14.1797 13.3318 13.8906 13.621 13.5352 13.621C13.1798 13.621 12.8906 13.3318 12.8906 12.9764V10.8603C12.8906 9.8397 12.5469 9.67911 11.6072 9.91202C11.018 10.0581 10.6061 10.1601 10.3125 10.2329C9.47165 10.4413 9.01867 10.5702 9.02344 11.8163V16.8436C9.02344 17.199 8.7343 17.4882 8.37891 17.4882C8.02351 17.4882 7.73438 17.199 7.73438 16.8436V12.1881C7.73438 11.1901 7.43359 10.9457 6.44531 11.1901C5.45703 11.4345 4.67769 11.627 4.44061 11.6856ZM11.6072 13.1163L10.3125 13.44V11.5609C10.7322 11.457 11.1633 11.3502 11.6016 11.2415V12.9764C11.6016 13.0235 11.6038 13.0701 11.6072 13.1163ZM6.44531 15.7356V16.8436C6.44531 17.0278 6.47174 17.2057 6.52004 17.3746L5.15625 17.7019V16.0578L6.44531 15.7356ZM5.15625 14.729V12.8366C5.46326 12.7607 5.90335 12.6519 6.44531 12.5179V14.4068L5.15625 14.729ZM20.7109 16.9749L5.15625 20.5461V19.0276L7.37438 18.4952C7.66734 18.6741 8.01131 18.7772 8.37891 18.7772C9.07238 18.7772 9.6815 18.4101 10.0228 17.8601L20.7109 15.3136V16.9749ZM20.7109 13.9885L10.3125 16.4659V14.7688L12.139 14.3121C12.4913 14.6802 12.9867 14.91 13.5352 14.91C14.42 14.91 15.1673 14.3124 15.3962 13.4998L20.7109 12.1881V13.9885ZM20.7109 10.8603L15.4688 12.1541V10.2822C17.316 9.82498 19.4258 9.31254 20.7109 8.99384V10.8603Z"></path>
            <path d="M19.0719 8.06934C19.0738 8.06889 19.0751 8.06855 19.0759 8.06836C19.0752 8.06855 19.0739 8.06885 19.0719 8.06934Z"></path>
            <path d="M19.0756 8.06876C19.0764 8.06853 19.0764 8.06857 19.0756 8.06876V8.06876Z"></path>
        </symbol>

        <symbol id="icon-salad" viewBox="0 0 24 24">
            <path d="M20.6759 7.58896L19.3119 6.22492L16.267 9.2295C15.69 8.3557 14.6998 7.77769 13.5766 7.77769C12.8738 7.77769 12.1963 8.00826 11.6428 8.42349C11.6373 8.41928 11.6316 8.4152 11.626 8.41099C11.2917 6.29589 10.8634 3.95086 9.14667 2.23419C8.03293 1.1204 6.29984 0.994138 5.04557 1.85514C3.7913 0.994095 2.05822 1.12045 0.944475 2.23419C-0.192167 3.37083 -0.282688 5.14168 0.565509 6.37816C-0.295748 7.63243 -0.169397 9.36551 0.944432 10.4794C1.4293 10.9643 1.96134 11.3429 2.52126 11.6443H0.000688871V12.2887C0.000688871 15.6968 2.05405 18.7622 5.15611 20.0573V21.9981H16.7988V20.0575C19.8217 18.798 21.9972 15.7802 21.9972 12.2887V11.6443H21.9148C22.2023 10.1885 21.7575 8.67052 20.6759 7.58896ZM13.5766 9.06654C14.6427 9.06654 15.5099 9.93381 15.5099 10.9998C15.5099 11.2205 15.4717 11.4384 15.3991 11.6443H12.867C12.91 11.433 12.9322 11.2171 12.9322 10.9998C12.9322 10.4152 12.7749 9.86688 12.5015 9.39365C12.8169 9.18267 13.1904 9.06654 13.5766 9.06654ZM11.6434 10.9998C11.6434 11.2205 11.6052 11.4384 11.5326 11.6443H7.84462C7.77202 11.4384 7.73383 11.2205 7.73383 10.9998C7.73383 9.95186 8.63882 9.06654 9.71007 9.06654C10.7761 9.06654 11.6434 9.93381 11.6434 10.9998ZM1.85578 9.56804C1.10202 8.81427 1.10202 7.58775 1.85578 6.83394L2.31144 6.37829L1.85578 5.92264C1.10309 5.16995 1.10309 3.89823 1.85578 3.14558C2.60959 2.39182 3.83607 2.39182 4.58988 3.14558L5.04553 3.60124L5.50118 3.14558C6.25499 2.39182 7.48147 2.39182 8.23528 3.14558C9.4758 4.38611 9.91986 6.08396 10.2222 7.81889C10.0553 7.79212 9.88437 7.77773 9.71003 7.77773C9.42876 7.77773 9.15251 7.81399 8.88624 7.88307C8.64384 6.47633 8.28563 5.01863 7.32388 4.05693C6.36214 3.09523 5.50024 4.05599 6.41253 4.96828C7.32482 5.88057 7.35817 6.65759 7.60039 8.02184C7.60039 8.02184 6.04017 6.46162 5.04549 5.46694C4.07855 4.5 3.26803 5.51218 4.13414 6.37829C5.00024 7.2444 6.68861 8.93272 6.68861 8.93272C5.35344 8.69424 4.58983 8.65673 3.67844 7.74534C2.76705 6.83394 1.85071 7.74018 2.76718 8.65664C3.68364 9.57311 4.96996 9.93695 6.54327 10.2153C6.47844 10.469 6.44501 10.732 6.44501 10.9998C6.44501 11.173 6.4591 11.3452 6.48656 11.5149C4.78359 11.2266 3.10077 10.813 1.85578 9.56804ZM15.5099 19.1598V20.7092H6.44497V19.1598C6.28902 19.0705 3.5468 18.4611 2.05766 15.5104H19.93C18.4258 18.4544 15.6712 19.0679 15.5099 19.1598ZM20.438 14.222H1.55608C1.43884 13.8045 1.35828 13.3735 1.31854 12.9327H20.6789C20.6386 13.3733 20.5569 13.8044 20.438 14.222ZM20.5907 11.6443H16.7336C16.7766 11.433 16.7988 11.2171 16.7988 10.9998C16.7988 10.8462 16.7873 10.6954 16.7664 10.5474L19.3059 8.04156L19.7646 8.50026C20.5986 9.33437 20.9028 10.5317 20.5907 11.6443Z"></path>
        </symbol>

        <symbol id="icon-sousy" viewBox="0 0 24 24">
            <path d="M21.9867 7.22194C21.9648 5.55791 20.5958 4.21094 18.9162 4.21094C17.4156 4.21094 16.1638 5.28633 15.8981 6.70229C15.3706 6.93425 14.4543 7.30519 13.9083 7.39549C13.25 7.50426 12.4544 7.53699 11.5437 7.49251C9.80409 7.40758 8.06738 6.84462 6.52118 5.86406C4.5755 4.63039 2.91835 4.34169 1.1479 4.92798C0.461243 5.15541 0 5.79742 0 6.52588C0 6.76187 0.129074 6.97906 0.336533 7.09203C0.5737 7.22093 0.795425 7.33238 1.00993 7.43997C2.17194 8.02324 2.8121 8.3445 3.23625 10.1149C3.55315 11.4369 4.10754 12.545 4.88434 13.4083C5.36975 13.9479 5.94379 14.3935 6.59654 14.74C6.1974 15.06 5.94127 15.5503 5.94127 16.099V17.1863C5.94127 17.5423 6.2298 17.8309 6.58563 17.8309H14.2616C14.6174 17.8309 14.9061 17.5423 14.9061 17.1863V16.099C14.9061 15.5528 14.6523 15.0646 14.2562 14.7443C15.9193 13.7747 16.9322 12.1254 17.1862 9.9711C17.3208 8.82924 17.2076 7.83357 17.1288 7.34312C17.1321 7.31677 17.1343 7.28992 17.1343 7.26273C17.1343 6.29073 17.9336 5.5 18.9162 5.5C19.8986 5.5 20.698 6.29073 20.698 7.26273C20.698 7.29344 20.7002 7.32416 20.7046 7.35454C20.7054 7.36092 20.7766 7.99991 20.3791 8.4588C20.0533 8.83478 19.4778 9.02545 18.6686 9.02545C18.3126 9.02545 18.024 9.31398 18.024 9.66998C18.024 10.0258 18.3126 10.3143 18.6686 10.3143C19.8685 10.3143 20.7719 9.97395 21.3533 9.30273C22.0665 8.47961 22.0141 7.47891 21.9867 7.22194ZM13.579 13.6474C13.0372 13.9583 12.4228 14.1604 11.7528 14.248C9.50751 14.5414 5.57805 14.3556 4.4899 9.8145C3.92593 7.46129 2.84265 6.91747 1.58817 6.28787C1.53882 6.2632 1.48914 6.23819 1.43895 6.21284C1.47252 6.18649 1.51096 6.16551 1.55309 6.15158C2.94118 5.69202 4.2205 5.93153 5.83083 6.95271C7.56519 8.05244 9.51875 8.68422 11.4807 8.78006C12.4828 8.8289 13.3702 8.79097 14.1188 8.6671C14.6564 8.57831 15.3771 8.31395 15.9229 8.09138C15.9649 8.55347 15.9849 9.17903 15.9016 9.85612C15.6861 11.611 14.9046 12.8866 13.579 13.6474ZM7.69543 15.6426H13.152C13.4084 15.6426 13.6171 15.8474 13.6171 16.099V16.542H7.23016V16.099C7.23016 15.8474 7.43896 15.6426 7.69543 15.6426Z"></path>
        </symbol>

        <symbol id="icon-zagotovki" viewBox="0 0 24 24">
            <path d="M14.8825 4.50291C16.6087 5.16145 18.7943 6.82902 18.7943 8.73374V20.0608C18.7943 21.1324 17.9275 22 16.8548 22H5.14558C4.07458 22 3.20605 21.1314 3.20605 20.0608V8.73374C3.20605 6.82846 5.39113 5.1608 7.11783 4.50261V3.88236C6.76046 3.88236 6.47077 3.59266 6.47077 3.23529V0.647066C6.47077 0.289695 6.76046 0 7.11783 0H14.8825C15.2399 0 15.5296 0.289695 15.5296 0.647066V3.23529C15.5296 3.59266 15.2399 3.88236 14.8825 3.88236V4.50291ZM8.41196 4.97484C8.41196 5.2702 8.21195 5.5281 7.92586 5.60158C6.50836 5.96552 4.50019 7.24857 4.50019 8.73374V20.0608C4.50019 20.4167 4.78937 20.7059 5.14558 20.7059H16.8548C17.2125 20.7059 17.5002 20.418 17.5002 20.0608V8.73374C17.5002 7.24926 15.4914 5.96604 14.0744 5.60171C13.7884 5.52819 13.5885 5.27033 13.5885 4.97501V3.88236H8.41196V4.97484ZM7.7649 2.58822H14.2355V1.29413H7.7649V2.58822ZM14.2355 18.1176C13.6994 18.1176 13.2649 17.6831 13.2649 17.1471C13.2649 16.611 13.6994 16.1765 14.2355 16.1765C14.7715 16.1765 15.2061 16.611 15.2061 17.1471C15.2061 17.6831 14.7715 18.1176 14.2355 18.1176ZM8.73548 8.41178C8.37811 8.41178 8.08841 8.12208 8.08841 7.76471C8.08841 7.40734 8.37811 7.11764 8.73548 7.11764C9.09285 7.11764 9.38254 7.40734 9.38254 7.76471C9.38254 8.12208 9.09285 8.41178 8.73548 8.41178ZM12.9413 14.8824C12.584 14.8824 12.2943 14.5927 12.2943 14.2353C12.2943 13.8779 12.584 13.5882 12.9413 13.5882C13.2987 13.5882 13.5884 13.8779 13.5884 14.2353C13.5884 14.5927 13.2987 14.8824 12.9413 14.8824ZM6.47077 15.2059C6.47077 12.1271 8.5838 9.66629 10.433 11.1412C10.6423 11.3081 10.8058 11.486 10.9242 11.6808C11.1615 12.0713 11.1975 12.4864 11.0799 12.9329C11.0387 13.0896 10.9809 13.2456 10.8988 13.4347C10.8562 13.5328 10.7031 13.8666 10.6922 13.891C10.4563 14.4167 10.3531 14.78 10.3531 15.2058C10.3531 15.6317 10.4562 15.9949 10.6922 16.5206C10.7031 16.545 10.8562 16.8788 10.8988 16.9769C10.9809 17.1661 11.0386 17.3221 11.0799 17.4787C11.1975 17.9253 11.1615 18.3404 10.9242 18.7309C10.8058 18.9257 10.6423 19.1035 10.433 19.2705C8.58384 20.7455 6.47077 18.2847 6.47077 15.2059ZM9.81829 18.059C9.89396 17.9345 9.87376 17.8578 9.51153 17.0506C9.20749 16.3729 9.05903 15.8504 9.05903 15.2059C9.05903 14.5615 9.20749 14.0389 9.51153 13.3613C9.8738 12.554 9.894 12.4774 9.81829 12.3528C9.78434 12.297 9.72298 12.2302 9.62613 12.153C8.95595 11.6184 7.7649 13.0055 7.7649 15.206C7.7649 17.4064 8.95595 18.7935 9.62613 18.2589C9.72298 18.1816 9.78434 18.1149 9.81829 18.059ZM13.4267 11.6471C12.2653 11.6471 11.3237 10.7055 11.3237 9.54413C11.3237 8.38273 12.2653 7.4412 13.4267 7.4412C14.5881 7.4412 15.5296 8.38273 15.5296 9.54413C15.5296 10.7055 14.5881 11.6471 13.4267 11.6471ZM13.4267 10.3529C13.8734 10.3529 14.2355 9.99079 14.2355 9.54409C14.2355 9.09739 13.8734 8.73525 13.4267 8.73525C12.98 8.73525 12.6178 9.09739 12.6178 9.54409C12.6178 9.99084 12.9799 10.3529 13.4267 10.3529Z"></path>
        </symbol>

        <symbol id="icon-zakuski" viewBox="0 0 24 24">
            <path d="M19.3336 17.429V14.6935H18.1469C18.4244 14.2641 18.5862 13.7534 18.5862 13.2052C18.5862 12.4839 18.3069 11.8271 17.8513 11.336C18.559 11.0551 19.2057 10.6242 19.7532 10.0591L20.1048 9.69617L18.2224 6.63011L17.639 7.23218C17.3167 7.56468 16.9201 7.79581 16.4856 7.91129V3.04037C16.7974 2.8304 17.003 2.47406 17.003 2.07072C17.003 1.42653 16.4789 0.902344 15.8347 0.902344C15.1905 0.902344 14.6663 1.42653 14.6663 2.07072C14.6663 2.47406 14.8719 2.8304 15.1837 3.04037V7.91129C14.7492 7.79581 14.3526 7.56468 14.0303 7.23218L13.4469 6.63011L11.5645 9.69617L11.9161 10.0591C12.4638 10.6242 13.1103 11.0551 13.818 11.336C13.3624 11.8271 13.0831 12.4839 13.0831 13.2052C13.0831 13.7534 13.2449 14.2641 13.5224 14.6935H12.3357V17.429H9.64095V14.6935H8.45427C8.73172 14.2641 8.89352 13.7534 8.89352 13.2052C8.89352 12.4839 8.61423 11.8271 8.15869 11.336C8.86633 11.0551 9.51288 10.6242 10.0606 10.0591L10.4122 9.69617L8.5298 6.63011L7.94637 7.23218C7.6241 7.56468 7.22748 7.79581 6.79292 7.91129V3.04037C7.10478 2.8304 7.31039 2.47406 7.31039 2.07072C7.31039 1.42653 6.78621 0.902344 6.14201 0.902344C5.49782 0.902344 4.97363 1.42653 4.97363 2.07072C4.97363 2.47406 5.17924 2.8304 5.49094 3.04037V7.91129C5.05655 7.79581 4.65976 7.56468 4.33766 7.23218L3.75423 6.63011L1.87183 9.69617L2.22346 10.0591C2.77115 10.6242 3.41769 11.0551 4.12534 11.336C3.6698 11.8271 3.3905 12.4839 3.3905 13.2052C3.3905 13.7534 3.55231 14.2641 3.82976 14.6935H2.64325V17.429H0L1.92235 21.126H20.0777L22 17.429H19.3336ZM14.3851 13.2052C14.3851 12.4059 15.0354 11.7556 15.8347 11.7556C16.6339 11.7556 17.2842 12.4059 17.2842 13.2052C17.2842 14.0045 16.6339 14.6547 15.8347 14.6547C15.0355 14.6547 14.3851 14.0045 14.3851 13.2052ZM13.7258 8.66425C14.3448 9.07698 15.0713 9.2982 15.8348 9.2982C16.5982 9.2982 17.3246 9.07698 17.9436 8.66425L18.4507 9.49039C17.7137 10.0908 16.8013 10.4166 15.8347 10.4166C14.868 10.4166 13.9558 10.0908 13.2186 9.49039L13.7258 8.66425ZM4.69266 13.2052C4.69266 12.4059 5.3429 11.7556 6.14201 11.7556C6.9413 11.7556 7.59154 12.4059 7.59154 13.2052C7.59154 14.0045 6.9413 14.6547 6.14201 14.6547C5.3429 14.6547 4.69266 14.0045 4.69266 13.2052ZM4.03319 8.66425C4.65221 9.07698 5.37865 9.2982 6.14201 9.2982C6.90555 9.2982 7.63199 9.07681 8.25101 8.66425L8.75824 9.49039C8.02106 10.0908 7.10881 10.4166 6.14218 10.4166C5.17538 10.4166 4.26314 10.0908 3.52596 9.49039L4.03319 8.66425ZM13.6377 15.9955H18.0316V17.4292H13.6377V15.9955ZM3.94507 15.9955H8.33896V17.4292H3.94507V15.9955ZM19.2873 19.8242H2.71274L2.14441 18.7312H19.8556L19.2873 19.8242Z"></path>
        </symbol>

    </defs>
</svg>



