<svg xmlns="http://www.w3.org/2000/svg" width="1200" height="1200" class="icon"><g class="layer"><path fill="#fff" d="M389.1 905.07a24.79 24.79 0 0 1-22.36-35.41l108.72-228.59a24.79 24.79 0 1 1 44.77 21.25L411.5 890.92a24.79 24.79 0 0 1-22.4 14.15zm416.01 0a24.79 24.79 0 0 1-22.67-14.69L678.9 658.77a24.79 24.79 0 0 1 45.25-20.24l103.58 231.63a24.79 24.79 0 0 1-22.62 34.91z"/><path fill="#fff" d="M836.38 1106.86H361.46a25.49 25.49 0 0 1-25.49-25.49v-201.1a25.49 25.49 0 0 1 25.49-25.49h168.78a25.49 25.49 0 0 1 0 50.98H386.95v150.11h423.93V905.76h-56.41a25.49 25.49 0 0 1 0-50.98h81.91a25.49 25.49 0 0 1 25.49 25.49v201.1a25.49 25.49 0 0 1-25.49 25.49z"/><path fill="#fff" d="M672.35 712.57zM486.04 947.85h-99.4a11.61 11.61 0 1 1 0-23.23h99.4a11.61 11.61 0 0 1 0 23.23zl19.9-330.43-19.9 330.43zL682.4 1353.8 486.04 947.85z"/><path fill="#fff" d="M598.91 738.05a138.51 138.51 0 1 1 138.52-138.51 138.67 138.67 0 0 1-138.52 138.51zm0-227.45a88.94 88.94 0 1 0 88.95 88.94 89.05 89.05 0 0 0-88.95-88.94z"/><path fill="#fff" d="M599.14 661.04a61.5 61.5 0 1 1 61.5-61.5 12.39 12.39 0 0 1-24.79 0 36.72 36.72 0 1 0-36.71 36.72 12.39 12.39 0 0 1 0 24.78z"/><path fill="#fff" d="M858.9 492.38z"/><path fill="#fff" d="M828.79 947.28h-63.43a12.39 12.39 0 0 1 0-24.78h63.43a12.39 12.39 0 0 1 0 24.78zM587.76 599.54a11.38 11.38 0 1 0 22.76 0 11.38 11.38 0 1 0-22.76 0z"/></g></svg>